<svg width="50" height="50" viewBox="0 0 50 50" fill="none" xmlns="http://www.w3.org/2000/svg">
<path d="M44.6767 50C43.2535 50 41.9157 49.4464 40.9109 48.4414L25.2494 32.7928C25.0992 32.6458 24.8602 32.6458 24.711 32.7938L9.05064 48.4414C8.04474 49.4464 6.70701 50 5.28477 50C3.95956 50 2.6907 49.511 1.71089 48.6249C0.663244 47.6762 0.0663805 46.349 0.0309026 44.8905C-0.00666229 43.3475 0.595419 41.839 1.68271 40.7526L17.1803 25.2687C17.3285 25.1207 17.3285 24.8788 17.1793 24.7297L1.68793 9.25417C-0.412571 7.15552 -0.573266 3.86629 1.32167 1.76451C2.31192 0.666714 3.66948 0.0411865 5.1439 0.00261225C6.63293 -0.0432598 8.00718 0.516587 9.05064 1.55809L24.7121 17.2067C24.9051 17.3985 25.0543 17.4017 25.2484 17.2078L40.9119 1.55913C42.0462 0.425886 43.6072 -0.13292 45.2131 0.0276325C46.8106 0.188185 48.2423 1.05871 49.1438 2.41715C50.5233 4.49703 50.1936 7.33588 48.3602 9.16763L32.7812 24.7308C32.632 24.8798 32.632 25.1217 32.7812 25.2708L48.4426 40.9173C50.5191 42.992 50.5191 46.3678 48.4426 48.4424C47.4378 49.4464 46.1 50 44.6767 50ZM24.9813 30.5993C25.6126 30.5993 26.2449 30.838 26.7249 31.3186L42.3874 46.9672C43.6114 48.1901 45.7473 48.1891 46.9672 46.9672C47.5797 46.3563 47.9167 45.5442 47.9167 44.6799C47.9167 43.8146 47.5797 43.0024 46.9682 42.3915L31.3057 26.7439C30.3447 25.7827 30.3447 24.2189 31.3047 23.2587L46.8847 7.69348C48.019 6.56023 48.2371 4.82647 47.4033 3.56916C46.843 2.72261 45.9905 2.20134 45.0044 2.1023C44.0288 2.00639 43.0781 2.34417 42.3874 3.03329L26.7249 18.6809C25.7952 19.6119 24.1684 19.6139 23.2366 18.6809L7.57518 3.03329C6.94075 2.39943 6.07885 2.08458 5.1992 2.08666C4.30286 2.1096 3.47644 2.49221 2.87331 3.16048C1.74115 4.41571 1.87158 6.48829 3.16444 7.78001L18.6568 23.2576C19.6178 24.2189 19.6178 25.7827 18.6579 26.7429L3.15818 42.2268C2.47262 42.9117 2.0928 43.8636 2.1168 44.8384C2.13871 45.7224 2.4914 46.5179 3.11226 47.0788C4.34564 48.1954 6.39293 48.1464 7.57518 46.9672L23.2366 31.3186C23.7176 30.839 24.3489 30.5993 24.9813 30.5993Z" fill="#2C2C2C" fill-opacity="0.9"/>
</svg>
