<svg width="64" height="38" viewBox="0 0 64 38" fill="none" xmlns="http://www.w3.org/2000/svg">
<path d="M61.2968 10.9619L61.2965 10.9623L37.7191 34.6213L37.7188 34.6216C36.1908 36.1562 34.1626 36.9995 32.0007 36.9995C29.8387 36.9995 27.8105 36.1562 26.2825 34.6216L26.2822 34.6213L2.70352 10.9622L2.70319 10.9619C1.60341 9.8594 1 8.39631 1 6.83575C1 5.27395 1.60333 3.81218 2.70319 2.70959L2.70466 2.70812C3.80029 1.6052 5.2562 0.999783 6.81064 0.999783C8.36493 0.999783 9.82088 1.60509 10.918 2.70946L10.9191 2.71061L28.972 20.8244L28.9723 20.8247C30.6423 22.4988 33.3576 22.4994 35.0267 20.8244C35.0267 20.8244 35.0268 20.8243 35.0268 20.8243L53.0796 2.70925L53.08 2.70885C54.1789 1.60496 55.634 0.999783 57.188 0.999783C58.7406 0.999783 60.1959 1.60484 61.2964 2.70922C62.3956 3.81229 63 5.27439 63 6.83575C63 8.39631 62.3966 9.8594 61.2968 10.9619Z" stroke="#2C2C2C" stroke-opacity="0.9" stroke-width="2"/>
</svg>
