<svg width="70" height="70" viewBox="0 0 70 70" fill="none" xmlns="http://www.w3.org/2000/svg">
<path d="M48.3049 68C46.2512 68 44.3179 67.2812 42.8649 65.9736L16.231 42.0279C14.2917 40.2858 13.2227 37.967 13.2227 35.5007C13.2227 33.0344 14.2917 30.7156 16.231 28.9735L42.8649 5.02639C44.3179 3.71878 46.2512 3 48.3049 3C50.3602 3 52.292 3.71878 53.7449 5.02639C55.1994 6.32993 56.0004 8.06799 56.0004 9.91705C56.0004 11.7661 55.1994 13.5042 53.7434 14.8091L33.352 33.144C31.9081 34.4435 31.9081 36.5565 33.352 37.8546L53.7449 56.1896C55.1994 57.4958 56.0004 59.2325 56.0004 61.0816C56.0004 62.9293 55.1994 64.666 53.7449 65.9736C52.292 67.2799 50.3602 68 48.3049 68ZM48.3049 5.70726C47.0552 5.70726 45.8793 6.14448 44.9939 6.94042L18.3585 30.8861C16.9868 32.118 16.2325 33.7558 16.2325 35.4993C16.2325 37.2428 16.9868 38.8807 18.3585 40.1125L44.9924 64.0582C46.7646 65.6528 49.8497 65.6501 51.6144 64.0582C52.4997 63.2623 52.9876 62.2065 52.9876 61.0816C52.9876 59.9554 52.4997 58.8995 51.6144 58.105L31.223 39.7687C28.6046 37.4147 28.6046 33.5839 31.223 31.2286L51.6159 12.8937C52.5027 12.0991 52.9891 11.0419 52.9891 9.91705C52.9891 8.79219 52.5027 7.735 51.6174 6.94177C50.7321 6.14448 49.5561 5.70726 48.3049 5.70726Z" fill="#2C2C2C" fill-opacity="0.9" stroke="#2C2C2C" stroke-opacity="0.9" stroke-width="2"/>
</svg>
