<svg width="38" height="64" viewBox="0 0 38 64" fill="none" xmlns="http://www.w3.org/2000/svg">
<path d="M27.0376 61.2968L27.0373 61.2965L3.37821 37.7191L3.37791 37.7188C1.84335 36.1908 1 34.1626 1 32.0007C1 29.8387 1.84335 27.8105 3.37791 26.2825L3.37823 26.2822L27.0373 2.70352L27.0376 2.70319C28.1401 1.60341 29.6032 1 31.1638 1C32.7256 1 34.1873 1.60333 35.2899 2.70319L35.2914 2.70466C36.3943 3.80029 36.9997 5.2562 36.9997 6.81064C36.9997 8.36493 36.3944 9.82088 35.2901 10.918L35.2889 10.9191L17.1751 28.972L17.1748 28.9723C15.5007 30.6423 15.5001 33.3576 17.1752 35.0267C17.1752 35.0267 17.1752 35.0268 17.1752 35.0268L35.2903 53.0796L35.2907 53.08C36.3946 54.1789 36.9997 55.634 36.9997 57.188C36.9997 58.7406 36.3947 60.1959 35.2903 61.2964C34.1872 62.3956 32.7251 63 31.1638 63C29.6032 63 28.1401 62.3966 27.0376 61.2968Z" stroke="#2C2C2C" stroke-opacity="0.9" stroke-width="2"/>
</svg>
