<svg width="70" height="70" viewBox="0 0 70 70" fill="none" xmlns="http://www.w3.org/2000/svg">
<path d="M21.6951 2C23.7488 2 25.6821 2.71878 27.1351 4.02639L53.769 27.9721C55.7083 29.7142 56.7773 32.033 56.7773 34.4993C56.7773 36.9656 55.7083 39.2844 53.769 41.0265L27.1351 64.9736C25.6821 66.2812 23.7488 67 21.6951 67C19.6398 67 17.708 66.2812 16.2551 64.9736C14.8006 63.6701 13.9996 61.932 13.9996 60.0829C13.9996 58.2339 14.8006 56.4958 16.2566 55.1909L36.648 36.856C38.0919 35.5565 38.0919 33.4435 36.648 32.1454L16.2551 13.8104C14.8006 12.5042 13.9996 10.7675 13.9996 8.91841C13.9996 7.07071 14.8006 5.33399 16.2551 4.02639C17.708 2.72013 19.6398 2 21.6951 2ZM21.6951 64.2927C22.9448 64.2927 24.1207 63.8555 25.0061 63.0596L51.6415 39.1139C53.0132 37.882 53.7675 36.2442 53.7675 34.5007C53.7675 32.7572 53.0132 31.1193 51.6415 29.8875L25.0076 5.94178C23.2354 4.3472 20.1503 4.3499 18.3856 5.94178C17.5003 6.73771 17.0124 7.79354 17.0124 8.91841C17.0124 10.0446 17.5003 11.1005 18.3856 11.895L38.777 30.2313C41.3954 32.5853 41.3954 36.4161 38.777 38.7714L18.3841 57.1063C17.4973 57.9009 17.0109 58.9581 17.0109 60.0829C17.0109 61.2078 17.4973 62.265 18.3826 63.0582C19.2679 63.8555 20.4439 64.2927 21.6951 64.2927Z" fill="#2C2C2C" fill-opacity="0.9" stroke="#2C2C2C" stroke-opacity="0.9" stroke-width="2"/>
</svg>
