<svg width="38" height="62" viewBox="0 0 38 62" fill="none" xmlns="http://www.w3.org/2000/svg">
<path d="M10.9788 2.62892L10.9791 2.62926L34.6382 25.1373L34.6385 25.1376C36.1683 26.5918 36.9998 28.5118 36.9998 30.5481C36.9998 32.5845 36.1683 34.5045 34.6385 35.9587L34.6381 35.959L10.9791 58.4683L10.9788 58.4686C9.87938 59.5156 8.41109 60.0975 6.83599 60.0975C5.25966 60.0975 3.79268 59.5156 2.69323 58.4686L2.69172 58.4672C1.59352 57.4257 1.00003 56.0522 1.00003 54.5958C1.00003 53.1395 1.59341 51.7659 2.69306 50.7231L2.69424 50.7219L20.808 33.4878L20.8083 33.4875C22.5046 31.8721 22.5052 29.2255 20.808 27.611L2.69287 10.3769L2.69247 10.3765C1.59327 9.33191 1.00003 7.95911 1.00003 6.50307C1.00003 5.04849 1.59314 3.67543 2.69285 2.62928C3.79278 1.58292 5.2601 1.00003 6.83599 1.00003C8.41109 1.00003 9.87938 1.582 10.9788 2.62892Z" stroke="#2C2C2C" stroke-opacity="0.9" stroke-width="2"/>
</svg>
