<svg width="64" height="38" viewBox="0 0 64 38" fill="none" xmlns="http://www.w3.org/2000/svg">
<path d="M2.68661 26.6197L2.68697 26.6193L26.2643 4.03326L26.2646 4.03298C27.7893 2.57113 29.8227 1.76001 31.9993 1.76001C34.1759 1.76001 36.2093 2.57113 37.7341 4.03298L37.7344 4.03328L61.313 26.6194L61.3134 26.6197C62.4083 27.6676 63 29.0479 63 30.5105C63 31.9741 62.4084 33.3533 61.3134 34.4012L61.3119 34.4027C60.2195 35.4524 58.7585 36.0364 57.1894 36.0364C55.6204 36.0364 54.1593 35.4525 53.0655 34.4014L53.0643 34.4002L35.0115 17.108L35.0112 17.1077C33.3452 15.5133 30.6549 15.5128 28.9898 17.108L10.937 34.4016L10.9366 34.4019C9.84095 35.4526 8.38068 36.0364 6.81197 36.0364C5.24479 36.0364 3.78425 35.4528 2.68699 34.4016C1.59261 33.3531 1 31.9737 1 30.5105C1 29.0479 1.59167 27.6676 2.68661 26.6197Z" stroke="#2C2C2C" stroke-opacity="0.9" stroke-width="2"/>
</svg>
