<svg width="60" height="60" viewBox="0 0 60 60" fill="none" xmlns="http://www.w3.org/2000/svg">
<path d="M43.125 3.75H16.875C11.7 3.75 7.5 7.95 7.5 13.125V46.875C7.5 52.05 11.7 56.25 16.875 56.25H33.75C34.7812 56.25 35.625 55.4062 35.625 54.375C35.625 53.3438 34.7812 52.5 33.75 52.5H16.875C13.7812 52.5 11.25 49.9688 11.25 46.875V13.125C11.25 10.0312 13.7812 7.5 16.875 7.5H18.75V16.875C18.75 17.625 19.2 18.3188 19.9125 18.6C20.6062 18.8813 21.4125 18.7312 21.9563 18.1875L24.375 15.7687L26.7938 18.1875C27.15 18.5625 27.6375 18.75 28.125 18.75C28.3687 18.75 28.6125 18.7125 28.8375 18.6C29.55 18.3188 30 17.625 30 16.875V7.5H43.125C46.2188 7.5 48.75 10.0312 48.75 13.125V37.5C48.75 38.5312 49.5938 39.375 50.625 39.375C51.6562 39.375 52.5 38.5312 52.5 37.5V13.125C52.5 7.95 48.3 3.75 43.125 3.75Z" fill="#2C2C2C" fill-opacity="0.9"/>
<path d="M50.625 46.875H46.875V43.125C46.875 42.0938 46.0312 41.25 45 41.25C43.9688 41.25 43.125 42.0938 43.125 43.125V46.875H39.375C38.3438 46.875 37.5 47.7188 37.5 48.75C37.5 49.7812 38.3438 50.625 39.375 50.625H43.125V54.375C43.125 55.4062 43.9688 56.25 45 56.25C46.0312 56.25 46.875 55.4062 46.875 54.375V50.625H50.625C51.6562 50.625 52.5 49.7812 52.5 48.75C52.5 47.7188 51.6562 46.875 50.625 46.875Z" fill="#2C2C2C" fill-opacity="0.9"/>
</svg>
