<svg width="60" height="60" viewBox="0 0 60 60" fill="none" xmlns="http://www.w3.org/2000/svg">
<path d="M43.125 3.75H16.875C11.7 3.75 7.5 7.95 7.5 13.125V46.875C7.5 52.05 11.7 56.25 16.875 56.25H43.125C48.3 56.25 52.5 52.05 52.5 46.875V13.125C52.5 7.95 48.3 3.75 43.125 3.75ZM48.75 46.875C48.75 49.9688 46.2188 52.5 43.125 52.5H16.875C13.7812 52.5 11.25 49.9688 11.25 46.875V13.125C11.25 10.0312 13.7812 7.5 16.875 7.5H18.75V16.875C18.75 17.625 19.2 18.3188 19.9125 18.6C20.625 18.8813 21.4125 18.7312 21.9563 18.1875L24.375 15.7687L26.7938 18.1875C27.15 18.5625 27.6375 18.75 28.125 18.75C28.3687 18.75 28.6125 18.7125 28.8375 18.6C29.55 18.3188 30 17.625 30 16.875V7.5H43.125C46.2188 7.5 48.75 10.0312 48.75 13.125V46.875Z" fill="#2C2C2C" fill-opacity="0.9"/>
</svg>
