<svg width="60" height="60" viewBox="0 0 60 60" fill="none" xmlns="http://www.w3.org/2000/svg">
<path fill-rule="evenodd" clip-rule="evenodd" d="M52 16.7885C52 13.3962 50.8462 10.1438 48.79 7.745C46.7338 5.34615 43.9462 4 41.0385 4H17.9615C15.0538 4 12.2662 5.34615 10.21 7.745C8.15385 10.1438 7 13.3962 7 16.7885V43.7115C7 47.1038 8.15385 50.3562 10.21 52.755C12.2662 55.1538 15.0538 56.5 17.9615 56.5H41.0385C43.9462 56.5 46.7338 55.1538 48.79 52.755C50.8462 50.3562 52 47.1038 52 43.7115V16.7885ZM48.5385 16.7885V43.7115C48.5385 46.0323 47.7492 48.2588 46.3415 49.8985C44.9362 51.5408 43.0277 52.4615 41.0385 52.4615H17.9615C15.9723 52.4615 14.0638 51.5408 12.6585 49.8985C11.2508 48.2588 10.4615 46.0323 10.4615 43.7115V16.7885C10.4615 14.4677 11.2508 12.2412 12.6585 10.6015C14.0638 8.95923 15.9723 8.03846 17.9615 8.03846H41.0385C43.0277 8.03846 44.9362 8.95923 46.3415 10.6015C47.7492 12.2412 48.5385 14.4677 48.5385 16.7885Z" fill="#2C2C2C" fill-opacity="0.9"/>
<path fill-rule="evenodd" clip-rule="evenodd" d="M21.4232 21.5H37.577C38.5324 21.5 39.3078 20.5954 39.3078 19.4808C39.3078 18.3662 38.5324 17.4615 37.577 17.4615H21.4232C20.4678 17.4615 19.6924 18.3662 19.6924 19.4808C19.6924 20.5954 20.4678 21.5 21.4232 21.5Z" fill="#2C2C2C" fill-opacity="0.9"/>
<path fill-rule="evenodd" clip-rule="evenodd" d="M21.4232 32.2692H37.577C38.5324 32.2692 39.3078 31.3646 39.3078 30.2499C39.3078 29.1353 38.5324 28.2307 37.577 28.2307H21.4232C20.4678 28.2307 19.6924 29.1353 19.6924 30.2499C19.6924 31.3646 20.4678 32.2692 21.4232 32.2692Z" fill="#2C2C2C" fill-opacity="0.9"/>
<path fill-rule="evenodd" clip-rule="evenodd" d="M21.4232 43.0385H37.577C38.5324 43.0385 39.3078 42.1338 39.3078 41.0192C39.3078 39.9046 38.5324 39 37.577 39H21.4232C20.4678 39 19.6924 39.9046 19.6924 41.0192C19.6924 42.1338 20.4678 43.0385 21.4232 43.0385Z" fill="#2C2C2C" fill-opacity="0.9"/>
</svg>
