<svg width="32" height="32" viewBox="0 0 32 32" fill="none" xmlns="http://www.w3.org/2000/svg">
<path d="M22.85 4.04005C20.21 3.77005 17.7 4.77005 16 6.70005C14.3 4.77005 11.79 3.77005 9.15 4.04005C5.14 4.46005 2 8.08005 2 12.2701C2 14.2801 2.75 16.2001 4.11 17.6901L11.91 26.2001C12.96 27.3401 14.45 28.0001 16 28.0001C17.55 28.0001 19.04 27.3401 20.09 26.2001L27.89 17.6901C29.25 16.2001 30 14.2801 30 12.2701C30 8.08005 26.86 4.46005 22.85 4.04005ZM26.42 16.3401L18.62 24.8501C17.94 25.5801 16.99 26.0001 16 26.0001C15.01 26.0001 14.06 25.5801 13.39 24.8501L5.59 16.3401C4.56 15.2201 4 13.7801 4 12.2701C4 9.08005 6.35 6.35005 9.35 6.03005C9.57 6.01005 9.79 6.00005 10 6.00005C12.11 6.00005 14.04 7.08005 15.14 8.91005C15.5 9.51005 16.49 9.51005 16.85 8.91005C18.07 6.89005 20.28 5.79005 22.64 6.03005C25.64 6.34005 27.99 9.08005 27.99 12.2701C28 13.7801 27.44 15.2201 26.42 16.3401Z" fill="white"/>
</svg>
