<svg width="56" height="51" viewBox="0 0 56 51" fill="none" xmlns="http://www.w3.org/2000/svg">
<path d="M27.3653 8.71535L28.0819 9.45359L28.7991 8.71605L28.7991 8.71601L28.7995 8.71569L28.8003 8.71481L28.8071 8.70793L28.838 8.67675C28.8663 8.64841 28.9097 8.60522 28.9676 8.54869C29.0834 8.43562 29.2569 8.26931 29.4827 8.06177C29.9344 7.64641 30.5935 7.06744 31.4152 6.42033C33.065 5.12111 35.3407 3.57101 37.8895 2.508C40.4426 1.44321 43.1912 0.899242 45.8356 1.49767C48.4472 2.0887 51.1066 3.82781 53.45 7.62451C55.4301 10.8327 55.4009 14.6058 53.9983 18.6837C52.5919 22.7727 49.8395 27.0489 46.5741 31.0976C40.049 39.1878 31.6634 46.1422 28.6255 48.5576C28.2914 48.8232 27.8683 48.824 27.5332 48.5597C24.4773 46.149 16.0258 39.1945 9.4571 31.1026C6.16973 27.053 3.40209 22.7762 1.9943 18.6874C0.590698 14.6107 0.573166 10.8392 2.58536 7.63057C4.96737 3.83225 7.65488 2.09008 10.2885 1.49799C12.9537 0.898766 15.7142 1.4437 18.2725 2.5083C20.8269 3.5713 23.1033 5.12127 24.7523 6.42024C25.5737 7.06725 26.232 7.64611 26.6831 8.06136C26.9085 8.26885 27.0817 8.43512 27.1973 8.54814C27.2551 8.60464 27.2984 8.6478 27.3266 8.67612L27.3574 8.70727L27.3641 8.71413L27.365 8.715L27.3653 8.71532L27.3653 8.71535Z" stroke="#2C2C2C" stroke-opacity="0.9" stroke-width="4"/>
</svg>
