<svg width="52" height="60" viewBox="0 0 52 60" fill="none" xmlns="http://www.w3.org/2000/svg">
<path d="M3.59766 44C2.85658 43.9999 2.18983 43.7524 1.70605 43.3369L1.7041 43.3359C1.22539 42.9264 1.00004 42.42 1 41.9141C1 41.4082 1.22535 40.9015 1.70508 40.4912L1.70605 40.4902L11.2402 32.3096C12.3797 31.331 12.3806 29.6689 11.2402 28.6904L1.70605 20.5107L1.70508 20.5098C1.22535 20.0985 1.00007 19.5925 1 19.0869C1 18.582 1.22559 18.0753 1.70605 17.6631C2.19029 17.2478 2.85712 17.0001 3.59766 17C4.33823 17 5.00647 17.2476 5.49023 17.6631L17.9424 28.3467L18.0713 28.4619C18.692 29.048 19 29.7676 19 30.5C18.9999 31.2812 18.6489 32.0467 17.9424 32.6523V32.6533L5.49023 43.3369C5.00647 43.7524 4.33822 44 3.59766 44Z" stroke="#2C2C2C" stroke-opacity="0.9" stroke-width="2"/>
<path d="M7 48.9677C7 53.9561 11.0439 58 16.0323 58H40C45.5228 58 50 53.5228 50 48V12C50 6.47715 45.5228 2 40 2H16.0323C11.0439 2 7 6.04388 7 11.0323" stroke="#2C2C2C" stroke-width="4" stroke-linecap="round"/>
</svg>
