<svg width="52" height="60" viewBox="0 0 52 60" fill="none" xmlns="http://www.w3.org/2000/svg">
<path d="M35.5977 45C34.8566 44.9999 34.1898 44.7524 33.7061 44.3369L33.7041 44.3359C33.2254 43.9264 33 43.42 33 42.9141C33 42.4082 33.2253 41.9015 33.7051 41.4912L33.7061 41.4902L43.2402 33.3096C44.3797 32.331 44.3806 30.6689 43.2402 29.6904L33.7061 21.5107L33.7051 21.5098C33.2253 21.0985 33.0001 20.5925 33 20.0869C33 19.582 33.2256 19.0753 33.7061 18.6631C34.1903 18.2478 34.8571 18.0001 35.5977 18C36.3382 18 37.0065 18.2476 37.4902 18.6631L49.9424 29.3467L50.0713 29.4619C50.692 30.048 51 30.7676 51 31.5C50.9999 32.2812 50.6489 33.0467 49.9424 33.6523V33.6533L37.4902 44.3369C37.0065 44.7524 36.3382 45 35.5977 45Z" stroke="#2C2C2C" stroke-opacity="0.9" stroke-width="2"/>
<path d="M45 11.0323C45 6.04388 40.9561 2 35.9677 2L12 2C6.47715 2 2 6.47715 2 12V48C2 53.5228 6.47715 58 12 58H35.9677C40.9561 58 45 53.9561 45 48.9677" stroke="black" stroke-width="4" stroke-linecap="round"/>
</svg>
