<svg width="60" height="60" viewBox="0 0 60 60" fill="none" xmlns="http://www.w3.org/2000/svg">
<path fill-rule="evenodd" clip-rule="evenodd" d="M29.9873 21.875C25.5023 21.875 21.8623 25.515 21.8623 30C21.8623 34.485 25.5023 38.125 29.9873 38.125C34.4723 38.125 38.1123 34.485 38.1123 30C38.1123 25.515 34.4723 21.875 29.9873 21.875ZM29.9873 25.625C32.4023 25.625 34.3623 27.585 34.3623 30C34.3623 32.415 32.4023 34.375 29.9873 34.375C27.5723 34.375 25.6123 32.415 25.6123 30C25.6123 27.585 27.5723 25.625 29.9873 25.625Z" fill="#2C2C2C" fill-opacity="0.9"/>
<path fill-rule="evenodd" clip-rule="evenodd" d="M21.8626 12.68C21.8626 13.35 21.5051 13.9675 20.9251 14.3025C20.3451 14.6375 19.6301 14.6375 19.0501 14.3025C18.6276 14.06 18.2126 13.82 17.8126 13.5875C16.5201 12.8425 14.9851 12.64 13.5451 13.0275C12.1026 13.4125 10.8751 14.355 10.1276 15.6475C9.33759 17.0175 8.42009 18.6075 7.62759 19.9775C6.88259 21.27 6.68009 22.805 7.06759 24.245C7.45259 25.6875 8.39509 26.915 9.68759 27.6625C10.0876 27.8925 10.5026 28.1325 10.9251 28.375C11.5051 28.71 11.8626 29.33 11.8626 30C11.8626 30.67 11.5051 31.29 10.9251 31.625C10.5026 31.8675 10.0876 32.1075 9.68759 32.3375C8.39509 33.085 7.45259 34.3125 7.06759 35.755C6.68009 37.195 6.88259 38.73 7.62759 40.0225C8.42009 41.3925 9.33759 42.9825 10.1276 44.3525C10.8751 45.645 12.1026 46.5875 13.5451 46.9725C14.9851 47.36 16.5201 47.1575 17.8126 46.4125C18.2126 46.18 18.6276 45.94 19.0501 45.6975C19.6301 45.3625 20.3451 45.3625 20.9251 45.6975C21.5051 46.0325 21.8626 46.65 21.8626 47.32C21.8626 47.8075 21.8626 48.29 21.8626 48.75C21.8626 50.2425 22.4551 51.6725 23.5101 52.7275C24.5651 53.7825 25.9951 54.375 27.4876 54.375H32.4876C33.9801 54.375 35.4101 53.7825 36.4651 52.7275C37.5201 51.6725 38.1126 50.2425 38.1126 48.75V47.32C38.1126 46.65 38.4701 46.0325 39.0501 45.6975C39.6301 45.3625 40.3451 45.3625 40.9251 45.6975C41.3476 45.94 41.7651 46.18 42.1626 46.4125C43.4551 47.1575 44.9901 47.36 46.4326 46.9725C47.8726 46.5875 49.1026 45.645 49.8476 44.3525C50.6376 42.9825 51.5576 41.3925 52.3476 40.0225C53.0926 38.73 53.2951 37.195 52.9101 35.755C52.5226 34.3125 51.5801 33.085 50.2876 32.3375C49.8901 32.1075 49.4726 31.8675 49.0501 31.625C48.4701 31.29 48.1126 30.67 48.1126 30C48.1126 29.33 48.4701 28.71 49.0501 28.375C49.4726 28.1325 49.8901 27.8925 50.2876 27.6625C51.5801 26.915 52.5226 25.6875 52.9101 24.245C53.2951 22.805 53.0926 21.27 52.3476 19.9775C51.5576 18.6075 50.6376 17.0175 49.8476 15.6475C49.1026 14.355 47.8726 13.4125 46.4326 13.0275C44.9901 12.64 43.4551 12.8425 42.1626 13.5875C41.7651 13.82 41.3476 14.06 40.9251 14.3025C40.3451 14.6375 39.6301 14.6375 39.0501 14.3025C38.4701 13.9675 38.1126 13.35 38.1126 12.68C38.1126 12.1925 38.1126 11.71 38.1126 11.25C38.1126 9.7575 37.5201 8.3275 36.4651 7.2725C35.4101 6.2175 33.9801 5.625 32.4876 5.625H27.4876C25.9951 5.625 24.5651 6.2175 23.5101 7.2725C22.4551 8.3275 21.8626 9.7575 21.8626 11.25V12.68ZM25.6126 12.68V11.25C25.6126 10.7525 25.8101 10.275 26.1626 9.925C26.5151 9.5725 26.9901 9.375 27.4876 9.375H32.4876C32.9851 9.375 33.4626 9.5725 33.8151 9.925C34.1651 10.275 34.3626 10.7525 34.3626 11.25V12.68C34.3626 14.69 35.4351 16.545 37.1751 17.55C38.9151 18.555 41.0601 18.555 42.8001 17.55C43.2226 17.3075 43.6401 17.0675 44.0376 16.835C44.4701 16.5875 44.9801 16.52 45.4601 16.65C45.9426 16.7775 46.3501 17.0925 46.6001 17.5225C47.3901 18.8925 48.3101 20.4825 49.1001 21.8525C49.3476 22.2825 49.4151 22.795 49.2876 23.275C49.1576 23.755 48.8451 24.165 48.4126 24.415C48.0151 24.645 47.5976 24.885 47.1751 25.1275C45.4351 26.1325 44.3626 27.99 44.3626 30C44.3626 32.01 45.4351 33.8675 47.1751 34.8725C47.5976 35.115 48.0151 35.355 48.4126 35.585C48.8451 35.835 49.1576 36.245 49.2876 36.725C49.4151 37.205 49.3476 37.7175 49.1001 38.1475C48.3101 39.5175 47.3901 41.1075 46.6001 42.4775C46.3501 42.9075 45.9426 43.2225 45.4601 43.35C44.9801 43.48 44.4701 43.4125 44.0376 43.165C43.6401 42.9325 43.2226 42.6925 42.8001 42.45C41.0601 41.445 38.9151 41.445 37.1751 42.45C35.4351 43.455 34.3626 45.31 34.3626 47.32C34.3626 47.8075 34.3626 48.29 34.3626 48.75C34.3626 49.2475 34.1651 49.725 33.8151 50.075C33.4626 50.4275 32.9851 50.625 32.4876 50.625H27.4876C26.9901 50.625 26.5151 50.4275 26.1626 50.075C25.8101 49.725 25.6126 49.2475 25.6126 48.75V47.32C25.6126 45.31 24.5401 43.455 22.8001 42.45C21.0601 41.445 18.9151 41.445 17.1751 42.45C16.7526 42.6925 16.3376 42.9325 15.9376 43.165C15.5076 43.4125 14.9951 43.48 14.5151 43.35C14.0351 43.2225 13.6251 42.9075 13.3751 42.4775C12.5851 41.1075 11.6676 39.5175 10.8751 38.1475C10.6276 37.7175 10.5601 37.205 10.6901 36.725C10.8176 36.245 11.1326 35.835 11.5626 35.585C11.9626 35.355 12.3776 35.115 12.8001 34.8725C14.5401 33.8675 15.6126 32.01 15.6126 30C15.6126 27.99 14.5401 26.1325 12.8001 25.1275C12.3776 24.885 11.9626 24.645 11.5626 24.415C11.1326 24.165 10.8176 23.755 10.6901 23.275C10.5601 22.795 10.6276 22.2825 10.8751 21.8525C11.6676 20.4825 12.5851 18.8925 13.3751 17.5225C13.6251 17.0925 14.0351 16.7775 14.5151 16.65C14.9951 16.52 15.5076 16.5875 15.9376 16.835C16.3376 17.0675 16.7526 17.3075 17.1751 17.55C18.9151 18.555 21.0601 18.555 22.8001 17.55C24.5401 16.545 25.6126 14.69 25.6126 12.68Z" fill="#2C2C2C" fill-opacity="0.9"/>
</svg>
