<svg width="58" height="58" viewBox="0 0 58 58" fill="none" xmlns="http://www.w3.org/2000/svg">
<mask id="path-1-inside-1_173_30" fill="white">
<path d="M9.0371 14.6011C9.30489 13.7771 10.0728 13.2192 10.9392 13.2192H45.1321C45.9499 13.2192 46.6854 13.7171 46.9891 14.4765L54.4749 33.1909C54.4824 33.2098 54.4893 33.2257 54.4979 33.2441C54.6928 33.6617 57.268 39.2445 57.4862 43.2192C57.6044 45.3727 57.6365 46.6629 56.9862 48.7192C56.38 50.636 55.833 51.7267 54.4862 53.2192C52.6689 55.2332 51.1111 56.0348 48.4862 56.7192C46.0299 57.3597 44.5246 57.2192 41.9862 57.2192C37.1047 57.2192 29.4862 57.2192 29.4862 57.2192H16.511C16.4945 57.2192 16.4806 57.2195 16.4641 57.2203C16.1272 57.2356 12.0149 57.4057 9.48619 56.7192C6.86827 56.0086 5.30352 55.2332 3.48619 53.2192C2.13938 51.7267 1.59238 50.636 0.986194 48.7192C0.335862 46.6629 0.430135 45.3752 0.486194 43.2192C0.586663 39.3553 2.79921 33.6917 2.97511 33.2471C2.98333 33.2264 2.98965 33.2086 2.99655 33.1874L9.0371 14.6011Z"/>
</mask>
<path d="M54.4862 53.2192L53.0014 51.8794L54.4862 53.2192ZM3.48619 53.2192L4.97102 51.8794L3.48619 53.2192ZM0.486194 43.2192L-1.51313 43.1673L0.486194 43.2192ZM57.4862 43.2192L59.4832 43.1096L57.4862 43.2192ZM9.48619 56.7192L8.96222 58.6494L9.48619 56.7192ZM48.4862 56.7192L47.9816 54.7839L48.4862 56.7192ZM0.986194 48.7192L2.8931 48.1162L0.986194 48.7192ZM56.9862 48.7192L55.0793 48.1162L56.9862 48.7192ZM16.4641 57.2203L16.5548 59.2182L16.4641 57.2203ZM29.4862 59.2192C30.5908 59.2192 31.4862 58.3238 31.4862 57.2192C31.4862 56.1147 30.5908 55.2192 29.4862 55.2192V59.2192ZM2.99655 33.1874L4.89862 33.8055L2.99655 33.1874ZM2.97511 33.2471L1.1154 32.5113L2.97511 33.2471ZM46.9891 14.4765L48.846 13.7337L46.9891 14.4765ZM54.4749 33.1909L52.6179 33.9337L54.4749 33.1909ZM54.4979 33.2441L52.6856 34.0902L54.4979 33.2441ZM10.9392 15.2192H45.1321V11.2192H10.9392V15.2192ZM45.1321 15.2192L52.6179 33.9337L56.3318 32.4482L48.846 13.7337L45.1321 15.2192ZM4.89862 33.8055L10.9392 15.2192L7.13503 13.9829L1.09448 32.5692L4.89862 33.8055ZM2.48552 43.2712C2.5285 41.6184 3.0399 39.4482 3.61766 37.5268C4.18297 35.6467 4.75801 34.1771 4.83483 33.983L1.1154 32.5113C1.01631 32.7617 0.397133 34.3461 -0.212922 36.375C-0.810534 38.3625 -1.45564 40.9561 -1.51313 43.1673L2.48552 43.2712ZM52.6856 34.0902C52.7689 34.2686 53.4335 35.707 54.1001 37.5712C54.7819 39.4776 55.3966 41.6424 55.4892 43.3288L59.4832 43.1096C59.3576 40.8214 58.5757 38.2074 57.8665 36.2243C57.1423 34.199 56.4218 32.6373 56.3101 32.3981L52.6856 34.0902ZM29.4862 55.2192H16.511V59.2192H29.4862V55.2192ZM41.9862 55.2192C41.9767 55.2192 41.9671 55.2192 41.9576 55.2192C41.948 55.2192 41.9384 55.2192 41.9289 55.2192C41.9193 55.2192 41.9097 55.2192 41.9001 55.2192C41.8905 55.2192 41.8809 55.2192 41.8713 55.2192C41.8617 55.2192 41.8521 55.2192 41.8424 55.2192C41.8328 55.2192 41.8231 55.2192 41.8135 55.2192C41.8038 55.2192 41.7942 55.2192 41.7845 55.2192C41.7748 55.2192 41.7651 55.2192 41.7554 55.2192C41.7457 55.2192 41.736 55.2192 41.7263 55.2192C41.7166 55.2192 41.7069 55.2192 41.6971 55.2192C41.6874 55.2192 41.6776 55.2192 41.6679 55.2192C41.6581 55.2192 41.6484 55.2192 41.6386 55.2192C41.6288 55.2192 41.619 55.2192 41.6092 55.2192C41.5995 55.2192 41.5896 55.2192 41.5798 55.2192C41.57 55.2192 41.5602 55.2192 41.5504 55.2192C41.5405 55.2192 41.5307 55.2192 41.5209 55.2192C41.511 55.2192 41.5012 55.2192 41.4913 55.2192C41.4814 55.2192 41.4715 55.2192 41.4617 55.2192C41.4518 55.2192 41.4419 55.2192 41.432 55.2192C41.4221 55.2192 41.4122 55.2192 41.4022 55.2192C41.3923 55.2192 41.3824 55.2192 41.3724 55.2192C41.3625 55.2192 41.3526 55.2192 41.3426 55.2192C41.3326 55.2192 41.3227 55.2192 41.3127 55.2192C41.3027 55.2192 41.2928 55.2192 41.2828 55.2192C41.2728 55.2192 41.2628 55.2192 41.2528 55.2192C41.2428 55.2192 41.2327 55.2192 41.2227 55.2192C41.2127 55.2192 41.2027 55.2192 41.1926 55.2192C41.1826 55.2192 41.1725 55.2192 41.1625 55.2192C41.1524 55.2192 41.1423 55.2192 41.1323 55.2192C41.1222 55.2192 41.1121 55.2192 41.102 55.2192C41.0919 55.2192 41.0818 55.2192 41.0717 55.2192C41.0616 55.2192 41.0515 55.2192 41.0414 55.2192C41.0312 55.2192 41.0211 55.2192 41.011 55.2192C41.0008 55.2192 40.9907 55.2192 40.9805 55.2192C40.9704 55.2192 40.9602 55.2192 40.95 55.2192C40.9399 55.2192 40.9297 55.2192 40.9195 55.2192C40.9093 55.2192 40.8991 55.2192 40.8889 55.2192C40.8787 55.2192 40.8685 55.2192 40.8583 55.2192C40.8481 55.2192 40.8379 55.2192 40.8276 55.2192C40.8174 55.2192 40.8072 55.2192 40.7969 55.2192C40.7867 55.2192 40.7764 55.2192 40.7662 55.2192C40.7559 55.2192 40.7456 55.2192 40.7354 55.2192C40.7251 55.2192 40.7148 55.2192 40.7045 55.2192C40.6942 55.2192 40.6839 55.2192 40.6736 55.2192C40.6633 55.2192 40.653 55.2192 40.6427 55.2192C40.6324 55.2192 40.622 55.2192 40.6117 55.2192C40.6014 55.2192 40.591 55.2192 40.5807 55.2192C40.5703 55.2192 40.56 55.2192 40.5496 55.2192C40.5393 55.2192 40.5289 55.2192 40.5185 55.2192C40.5082 55.2192 40.4978 55.2192 40.4874 55.2192C40.477 55.2192 40.4666 55.2192 40.4562 55.2192C40.4458 55.2192 40.4354 55.2192 40.425 55.2192C40.4146 55.2192 40.4042 55.2192 40.3938 55.2192C40.3833 55.2192 40.3729 55.2192 40.3625 55.2192C40.352 55.2192 40.3416 55.2192 40.3311 55.2192C40.3207 55.2192 40.3102 55.2192 40.2998 55.2192C40.2893 55.2192 40.2788 55.2192 40.2684 55.2192C40.2579 55.2192 40.2474 55.2192 40.2369 55.2192C40.2264 55.2192 40.216 55.2192 40.2055 55.2192C40.195 55.2192 40.1845 55.2192 40.1739 55.2192C40.1634 55.2192 40.1529 55.2192 40.1424 55.2192C40.1319 55.2192 40.1213 55.2192 40.1108 55.2192C40.1003 55.2192 40.0897 55.2192 40.0792 55.2192C40.0687 55.2192 40.0581 55.2192 40.0476 55.2192C40.037 55.2192 40.0264 55.2192 40.0159 55.2192C40.0053 55.2192 39.9947 55.2192 39.9842 55.2192C39.9736 55.2192 39.963 55.2192 39.9524 55.2192C39.9418 55.2192 39.9312 55.2192 39.9206 55.2192C39.91 55.2192 39.8994 55.2192 39.8888 55.2192C39.8782 55.2192 39.8676 55.2192 39.857 55.2192C39.8464 55.2192 39.8358 55.2192 39.8251 55.2192C39.8145 55.2192 39.8039 55.2192 39.7932 55.2192C39.7826 55.2192 39.7719 55.2192 39.7613 55.2192C39.7507 55.2192 39.74 55.2192 39.7293 55.2192C39.7187 55.2192 39.708 55.2192 39.6974 55.2192C39.6867 55.2192 39.676 55.2192 39.6653 55.2192C39.6547 55.2192 39.644 55.2192 39.6333 55.2192C39.6226 55.2192 39.6119 55.2192 39.6012 55.2192C39.5905 55.2192 39.5798 55.2192 39.5691 55.2192C39.5584 55.2192 39.5477 55.2192 39.537 55.2192C39.5263 55.2192 39.5156 55.2192 39.5049 55.2192C39.4942 55.2192 39.4834 55.2192 39.4727 55.2192C39.462 55.2192 39.4512 55.2192 39.4405 55.2192C39.4298 55.2192 39.419 55.2192 39.4083 55.2192C39.3975 55.2192 39.3868 55.2192 39.376 55.2192C39.3653 55.2192 39.3545 55.2192 39.3438 55.2192C39.333 55.2192 39.3223 55.2192 39.3115 55.2192C39.3007 55.2192 39.29 55.2192 39.2792 55.2192C39.2684 55.2192 39.2576 55.2192 39.2468 55.2192C39.2361 55.2192 39.2253 55.2192 39.2145 55.2192C39.2037 55.2192 39.1929 55.2192 39.1821 55.2192C39.1713 55.2192 39.1605 55.2192 39.1497 55.2192C39.1389 55.2192 39.1281 55.2192 39.1173 55.2192C39.1065 55.2192 39.0957 55.2192 39.0849 55.2192C39.0741 55.2192 39.0632 55.2192 39.0524 55.2192C39.0416 55.2192 39.0308 55.2192 39.0199 55.2192C39.0091 55.2192 38.9983 55.2192 38.9874 55.2192C38.9766 55.2192 38.9658 55.2192 38.9549 55.2192C38.9441 55.2192 38.9333 55.2192 38.9224 55.2192C38.9116 55.2192 38.9007 55.2192 38.8899 55.2192C38.879 55.2192 38.8682 55.2192 38.8573 55.2192C38.8464 55.2192 38.8356 55.2192 38.8247 55.2192C38.8139 55.2192 38.803 55.2192 38.7921 55.2192C38.7813 55.2192 38.7704 55.2192 38.7595 55.2192C38.7487 55.2192 38.7378 55.2192 38.7269 55.2192C38.716 55.2192 38.7052 55.2192 38.6943 55.2192C38.6834 55.2192 38.6725 55.2192 38.6616 55.2192C38.6507 55.2192 38.6398 55.2192 38.629 55.2192C38.6181 55.2192 38.6072 55.2192 38.5963 55.2192C38.5854 55.2192 38.5745 55.2192 38.5636 55.2192C38.5527 55.2192 38.5418 55.2192 38.5309 55.2192C38.52 55.2192 38.5091 55.2192 38.4982 55.2192C38.4873 55.2192 38.4764 55.2192 38.4655 55.2192C38.4546 55.2192 38.4436 55.2192 38.4327 55.2192C38.4218 55.2192 38.4109 55.2192 38.4 55.2192C38.3891 55.2192 38.3782 55.2192 38.3672 55.2192C38.3563 55.2192 38.3454 55.2192 38.3345 55.2192C38.3236 55.2192 38.3126 55.2192 38.3017 55.2192C38.2908 55.2192 38.2799 55.2192 38.2689 55.2192C38.258 55.2192 38.2471 55.2192 38.2362 55.2192C38.2252 55.2192 38.2143 55.2192 38.2034 55.2192C38.1924 55.2192 38.1815 55.2192 38.1706 55.2192C38.1596 55.2192 38.1487 55.2192 38.1378 55.2192C38.1268 55.2192 38.1159 55.2192 38.105 55.2192C38.094 55.2192 38.0831 55.2192 38.0721 55.2192C38.0612 55.2192 38.0503 55.2192 38.0393 55.2192C38.0284 55.2192 38.0174 55.2192 38.0065 55.2192C37.9956 55.2192 37.9846 55.2192 37.9737 55.2192C37.9627 55.2192 37.9518 55.2192 37.9408 55.2192C37.9299 55.2192 37.919 55.2192 37.908 55.2192C37.8971 55.2192 37.8861 55.2192 37.8752 55.2192C37.8642 55.2192 37.8533 55.2192 37.8423 55.2192C37.8314 55.2192 37.8204 55.2192 37.8095 55.2192C37.7986 55.2192 37.7876 55.2192 37.7767 55.2192C37.7657 55.2192 37.7548 55.2192 37.7438 55.2192C37.7329 55.2192 37.7219 55.2192 37.711 55.2192C37.7 55.2192 37.6891 55.2192 37.6781 55.2192C37.6672 55.2192 37.6562 55.2192 37.6453 55.2192C37.6343 55.2192 37.6234 55.2192 37.6125 55.2192C37.6015 55.2192 37.5906 55.2192 37.5796 55.2192C37.5687 55.2192 37.5577 55.2192 37.5468 55.2192C37.5358 55.2192 37.5249 55.2192 37.514 55.2192C37.503 55.2192 37.4921 55.2192 37.4811 55.2192C37.4702 55.2192 37.4592 55.2192 37.4483 55.2192C37.4374 55.2192 37.4264 55.2192 37.4155 55.2192C37.4045 55.2192 37.3936 55.2192 37.3827 55.2192C37.3717 55.2192 37.3608 55.2192 37.3498 55.2192C37.3389 55.2192 37.328 55.2192 37.317 55.2192C37.3061 55.2192 37.2952 55.2192 37.2842 55.2192C37.2733 55.2192 37.2624 55.2192 37.2514 55.2192C37.2405 55.2192 37.2296 55.2192 37.2187 55.2192C37.2077 55.2192 37.1968 55.2192 37.1859 55.2192C37.1749 55.2192 37.164 55.2192 37.1531 55.2192C37.1422 55.2192 37.1313 55.2192 37.1203 55.2192C37.1094 55.2192 37.0985 55.2192 37.0876 55.2192C37.0767 55.2192 37.0657 55.2192 37.0548 55.2192C37.0439 55.2192 37.033 55.2192 37.0221 55.2192C37.0112 55.2192 37.0003 55.2192 36.9894 55.2192C36.9785 55.2192 36.9676 55.2192 36.9566 55.2192C36.9457 55.2192 36.9348 55.2192 36.9239 55.2192C36.913 55.2192 36.9021 55.2192 36.8913 55.2192C36.8804 55.2192 36.8695 55.2192 36.8586 55.2192C36.8477 55.2192 36.8368 55.2192 36.8259 55.2192C36.815 55.2192 36.8041 55.2192 36.7932 55.2192C36.7824 55.2192 36.7715 55.2192 36.7606 55.2192C36.7497 55.2192 36.7388 55.2192 36.728 55.2192C36.7171 55.2192 36.7062 55.2192 36.6954 55.2192C36.6845 55.2192 36.6736 55.2192 36.6627 55.2192C36.6519 55.2192 36.641 55.2192 36.6302 55.2192C36.6193 55.2192 36.6084 55.2192 36.5976 55.2192C36.5867 55.2192 36.5759 55.2192 36.565 55.2192C36.5542 55.2192 36.5433 55.2192 36.5325 55.2192C36.5217 55.2192 36.5108 55.2192 36.5 55.2192C36.4891 55.2192 36.4783 55.2192 36.4675 55.2192C36.4566 55.2192 36.4458 55.2192 36.435 55.2192C36.4242 55.2192 36.4133 55.2192 36.4025 55.2192C36.3917 55.2192 36.3809 55.2192 36.3701 55.2192C36.3593 55.2192 36.3484 55.2192 36.3376 55.2192C36.3268 55.2192 36.316 55.2192 36.3052 55.2192C36.2944 55.2192 36.2836 55.2192 36.2728 55.2192C36.2621 55.2192 36.2513 55.2192 36.2405 55.2192C36.2297 55.2192 36.2189 55.2192 36.2081 55.2192C36.1973 55.2192 36.1866 55.2192 36.1758 55.2192C36.165 55.2192 36.1543 55.2192 36.1435 55.2192C36.1327 55.2192 36.122 55.2192 36.1112 55.2192C36.1005 55.2192 36.0897 55.2192 36.079 55.2192C36.0682 55.2192 36.0575 55.2192 36.0467 55.2192C36.036 55.2192 36.0252 55.2192 36.0145 55.2192C36.0038 55.2192 35.993 55.2192 35.9823 55.2192C35.9716 55.2192 35.9609 55.2192 35.9502 55.2192C35.9394 55.2192 35.9287 55.2192 35.918 55.2192C35.9073 55.2192 35.8966 55.2192 35.8859 55.2192C35.8752 55.2192 35.8645 55.2192 35.8538 55.2192C35.8431 55.2192 35.8325 55.2192 35.8218 55.2192C35.8111 55.2192 35.8004 55.2192 35.7897 55.2192C35.7791 55.2192 35.7684 55.2192 35.7577 55.2192C35.7471 55.2192 35.7364 55.2192 35.7258 55.2192C35.7151 55.2192 35.7045 55.2192 35.6938 55.2192C35.6832 55.2192 35.6725 55.2192 35.6619 55.2192C35.6513 55.2192 35.6406 55.2192 35.63 55.2192C35.6194 55.2192 35.6088 55.2192 35.5982 55.2192C35.5875 55.2192 35.5769 55.2192 35.5663 55.2192C35.5557 55.2192 35.5451 55.2192 35.5345 55.2192C35.5239 55.2192 35.5133 55.2192 35.5028 55.2192C35.4922 55.2192 35.4816 55.2192 35.471 55.2192C35.4605 55.2192 35.4499 55.2192 35.4393 55.2192C35.4288 55.2192 35.4182 55.2192 35.4077 55.2192C35.3971 55.2192 35.3866 55.2192 35.376 55.2192C35.3655 55.2192 35.355 55.2192 35.3444 55.2192C35.3339 55.2192 35.3234 55.2192 35.3129 55.2192C35.3023 55.2192 35.2918 55.2192 35.2813 55.2192C35.2708 55.2192 35.2603 55.2192 35.2498 55.2192C35.2393 55.2192 35.2288 55.2192 35.2184 55.2192C35.2079 55.2192 35.1974 55.2192 35.1869 55.2192C35.1765 55.2192 35.166 55.2192 35.1555 55.2192C35.1451 55.2192 35.1346 55.2192 35.1242 55.2192C35.1137 55.2192 35.1033 55.2192 35.0929 55.2192C35.0824 55.2192 35.072 55.2192 35.0616 55.2192C35.0512 55.2192 35.0408 55.2192 35.0304 55.2192C35.02 55.2192 35.0096 55.2192 34.9992 55.2192C34.9888 55.2192 34.9784 55.2192 34.968 55.2192C34.9576 55.2192 34.9472 55.2192 34.9369 55.2192C34.9265 55.2192 34.9161 55.2192 34.9058 55.2192C34.8954 55.2192 34.8851 55.2192 34.8748 55.2192C34.8644 55.2192 34.8541 55.2192 34.8438 55.2192C34.8334 55.2192 34.8231 55.2192 34.8128 55.2192C34.8025 55.2192 34.7922 55.2192 34.7819 55.2192C34.7716 55.2192 34.7613 55.2192 34.751 55.2192C34.7407 55.2192 34.7304 55.2192 34.7202 55.2192C34.7099 55.2192 34.6996 55.2192 34.6894 55.2192C34.6791 55.2192 34.6689 55.2192 34.6586 55.2192C34.6484 55.2192 34.6382 55.2192 34.6279 55.2192C34.6177 55.2192 34.6075 55.2192 34.5973 55.2192C34.5871 55.2192 34.5769 55.2192 34.5667 55.2192C34.5565 55.2192 34.5463 55.2192 34.5361 55.2192C34.5259 55.2192 34.5158 55.2192 34.5056 55.2192C34.4954 55.2192 34.4853 55.2192 34.4751 55.2192C34.465 55.2192 34.4548 55.2192 34.4447 55.2192C34.4346 55.2192 34.4244 55.2192 34.4143 55.2192C34.4042 55.2192 34.3941 55.2192 34.384 55.2192C34.3739 55.2192 34.3638 55.2192 34.3537 55.2192C34.3436 55.2192 34.3335 55.2192 34.3235 55.2192C34.3134 55.2192 34.3033 55.2192 34.2933 55.2192C34.2832 55.2192 34.2732 55.2192 34.2632 55.2192C34.2531 55.2192 34.2431 55.2192 34.2331 55.2192C34.2231 55.2192 34.213 55.2192 34.203 55.2192C34.193 55.2192 34.183 55.2192 34.1731 55.2192C34.1631 55.2192 34.1531 55.2192 34.1431 55.2192C34.1332 55.2192 34.1232 55.2192 34.1133 55.2192C34.1033 55.2192 34.0934 55.2192 34.0834 55.2192C34.0735 55.2192 34.0636 55.2192 34.0537 55.2192C34.0438 55.2192 34.0338 55.2192 34.0239 55.2192C34.014 55.2192 34.0042 55.2192 33.9943 55.2192C33.9844 55.2192 33.9745 55.2192 33.9647 55.2192C33.9548 55.2192 33.945 55.2192 33.9351 55.2192C33.9253 55.2192 33.9154 55.2192 33.9056 55.2192C33.8958 55.2192 33.886 55.2192 33.8762 55.2192C33.8664 55.2192 33.8566 55.2192 33.8468 55.2192C33.837 55.2192 33.8272 55.2192 33.8175 55.2192C33.8077 55.2192 33.7979 55.2192 33.7882 55.2192C33.7784 55.2192 33.7687 55.2192 33.759 55.2192C33.7493 55.2192 33.7395 55.2192 33.7298 55.2192C33.7201 55.2192 33.7104 55.2192 33.7007 55.2192C33.691 55.2192 33.6814 55.2192 33.6717 55.2192C33.662 55.2192 33.6524 55.2192 33.6427 55.2192C33.6331 55.2192 33.6234 55.2192 33.6138 55.2192C33.6042 55.2192 33.5945 55.2192 33.5849 55.2192C33.5753 55.2192 33.5657 55.2192 33.5561 55.2192C33.5465 55.2192 33.537 55.2192 33.5274 55.2192C33.5178 55.2192 33.5083 55.2192 33.4987 55.2192C33.4892 55.2192 33.4796 55.2192 33.4701 55.2192C33.4606 55.2192 33.4511 55.2192 33.4416 55.2192C33.4321 55.2192 33.4226 55.2192 33.4131 55.2192C33.4036 55.2192 33.3941 55.2192 33.3847 55.2192C33.3752 55.2192 33.3657 55.2192 33.3563 55.2192C33.3469 55.2192 33.3374 55.2192 33.328 55.2192C33.3186 55.2192 33.3092 55.2192 33.2998 55.2192C33.2904 55.2192 33.281 55.2192 33.2716 55.2192C33.2622 55.2192 33.2529 55.2192 33.2435 55.2192C33.2342 55.2192 33.2248 55.2192 33.2155 55.2192C33.2062 55.2192 33.1968 55.2192 33.1875 55.2192C33.1782 55.2192 33.1689 55.2192 33.1596 55.2192C33.1503 55.2192 33.1411 55.2192 33.1318 55.2192C33.1225 55.2192 33.1133 55.2192 33.104 55.2192C33.0948 55.2192 33.0856 55.2192 33.0764 55.2192C33.0671 55.2192 33.0579 55.2192 33.0487 55.2192C33.0395 55.2192 33.0304 55.2192 33.0212 55.2192C33.012 55.2192 33.0028 55.2192 32.9937 55.2192C32.9846 55.2192 32.9754 55.2192 32.9663 55.2192C32.9572 55.2192 32.9481 55.2192 32.939 55.2192C32.9299 55.2192 32.9208 55.2192 32.9117 55.2192C32.9026 55.2192 32.8935 55.2192 32.8845 55.2192C32.8754 55.2192 32.8664 55.2192 32.8574 55.2192C32.8483 55.2192 32.8393 55.2192 32.8303 55.2192C32.8213 55.2192 32.8123 55.2192 32.8033 55.2192C32.7944 55.2192 32.7854 55.2192 32.7764 55.2192C32.7675 55.2192 32.7585 55.2192 32.7496 55.2192C32.7407 55.2192 32.7318 55.2192 32.7229 55.2192C32.714 55.2192 32.7051 55.2192 32.6962 55.2192C32.6873 55.2192 32.6784 55.2192 32.6696 55.2192C32.6607 55.2192 32.6519 55.2192 32.6431 55.2192C32.6342 55.2192 32.6254 55.2192 32.6166 55.2192C32.6078 55.2192 32.599 55.2192 32.5902 55.2192C32.5815 55.2192 32.5727 55.2192 32.5639 55.2192C32.5552 55.2192 32.5464 55.2192 32.5377 55.2192C32.529 55.2192 32.5203 55.2192 32.5116 55.2192C32.5029 55.2192 32.4942 55.2192 32.4855 55.2192C32.4768 55.2192 32.4682 55.2192 32.4595 55.2192C32.4509 55.2192 32.4423 55.2192 32.4336 55.2192C32.425 55.2192 32.4164 55.2192 32.4078 55.2192C32.3992 55.2192 32.3906 55.2192 32.3821 55.2192C32.3735 55.2192 32.365 55.2192 32.3564 55.2192C32.3479 55.2192 32.3394 55.2192 32.3309 55.2192C32.3223 55.2192 32.3138 55.2192 32.3054 55.2192C32.2969 55.2192 32.2884 55.2192 32.2799 55.2192C32.2715 55.2192 32.2631 55.2192 32.2546 55.2192C32.2462 55.2192 32.2378 55.2192 32.2294 55.2192C32.221 55.2192 32.2126 55.2192 32.2042 55.2192C32.1958 55.2192 32.1875 55.2192 32.1791 55.2192C32.1708 55.2192 32.1625 55.2192 32.1542 55.2192C32.1458 55.2192 32.1375 55.2192 32.1293 55.2192C32.121 55.2192 32.1127 55.2192 32.1044 55.2192C32.0962 55.2192 32.0879 55.2192 32.0797 55.2192C32.0715 55.2192 32.0633 55.2192 32.0551 55.2192C32.0469 55.2192 32.0387 55.2192 32.0305 55.2192C32.0223 55.2192 32.0142 55.2192 32.006 55.2192C31.9979 55.2192 31.9898 55.2192 31.9816 55.2192C31.9735 55.2192 31.9654 55.2192 31.9574 55.2192C31.9493 55.2192 31.9412 55.2192 31.9332 55.2192C31.9251 55.2192 31.9171 55.2192 31.909 55.2192C31.901 55.2192 31.893 55.2192 31.885 55.2192C31.877 55.2192 31.869 55.2192 31.8611 55.2192C31.8531 55.2192 31.8452 55.2192 31.8372 55.2192C31.8293 55.2192 31.8214 55.2192 31.8135 55.2192C31.8056 55.2192 31.7977 55.2192 31.7898 55.2192C31.782 55.2192 31.7741 55.2192 31.7663 55.2192C31.7584 55.2192 31.7506 55.2192 31.7428 55.2192C31.735 55.2192 31.7272 55.2192 31.7194 55.2192C31.7116 55.2192 31.7039 55.2192 31.6961 55.2192C31.6884 55.2192 31.6806 55.2192 31.6729 55.2192C31.6652 55.2192 31.6575 55.2192 31.6498 55.2192C31.6422 55.2192 31.6345 55.2192 31.6268 55.2192C31.6192 55.2192 31.6115 55.2192 31.6039 55.2192C31.5963 55.2192 31.5887 55.2192 31.5811 55.2192C31.5735 55.2192 31.566 55.2192 31.5584 55.2192C31.5508 55.2192 31.5433 55.2192 31.5358 55.2192C31.5283 55.2192 31.5208 55.2192 31.5133 55.2192C31.5058 55.2192 31.4983 55.2192 31.4908 55.2192C31.4834 55.2192 31.4759 55.2192 31.4685 55.2192C31.4611 55.2192 31.4537 55.2192 31.4463 55.2192C31.4389 55.2192 31.4315 55.2192 31.4242 55.2192C31.4168 55.2192 31.4095 55.2192 31.4022 55.2192C31.3948 55.2192 31.3875 55.2192 31.3802 55.2192C31.3729 55.2192 31.3657 55.2192 31.3584 55.2192C31.3511 55.2192 31.3439 55.2192 31.3367 55.2192C31.3295 55.2192 31.3223 55.2192 31.3151 55.2192C31.3079 55.2192 31.3007 55.2192 31.2935 55.2192C31.2864 55.2192 31.2793 55.2192 31.2721 55.2192C31.265 55.2192 31.2579 55.2192 31.2508 55.2192C31.2437 55.2192 31.2367 55.2192 31.2296 55.2192C31.2226 55.2192 31.2155 55.2192 31.2085 55.2192C31.2015 55.2192 31.1945 55.2192 31.1875 55.2192C31.1805 55.2192 31.1736 55.2192 31.1666 55.2192C31.1597 55.2192 31.1527 55.2192 31.1458 55.2192C31.1389 55.2192 31.132 55.2192 31.1251 55.2192C31.1183 55.2192 31.1114 55.2192 31.1046 55.2192C31.0977 55.2192 31.0909 55.2192 31.0841 55.2192C31.0773 55.2192 31.0705 55.2192 31.0637 55.2192C31.057 55.2192 31.0502 55.2192 31.0435 55.2192C31.0367 55.2192 31.03 55.2192 31.0233 55.2192C31.0166 55.2192 31.0099 55.2192 31.0033 55.2192C30.9966 55.2192 30.99 55.2192 30.9833 55.2192C30.9767 55.2192 30.9701 55.2192 30.9635 55.2192C30.9569 55.2192 30.9504 55.2192 30.9438 55.2192C30.9373 55.2192 30.9307 55.2192 30.9242 55.2192C30.9177 55.2192 30.9112 55.2192 30.9047 55.2192C30.8982 55.2192 30.8918 55.2192 30.8853 55.2192C30.8789 55.2192 30.8725 55.2192 30.8661 55.2192C30.8597 55.2192 30.8533 55.2192 30.8469 55.2192C30.8406 55.2192 30.8342 55.2192 30.8279 55.2192C30.8216 55.2192 30.8153 55.2192 30.809 55.2192C30.8027 55.2192 30.7964 55.2192 30.7901 55.2192C30.7839 55.2192 30.7777 55.2192 30.7714 55.2192C30.7652 55.2192 30.759 55.2192 30.7529 55.2192C30.7467 55.2192 30.7405 55.2192 30.7344 55.2192C30.7283 55.2192 30.7221 55.2192 30.716 55.2192C30.7099 55.2192 30.7039 55.2192 30.6978 55.2192C30.6917 55.2192 30.6857 55.2192 30.6797 55.2192C30.6737 55.2192 30.6677 55.2192 30.6617 55.2192C30.6557 55.2192 30.6497 55.2192 30.6438 55.2192C30.6378 55.2192 30.6319 55.2192 30.626 55.2192C30.6201 55.2192 30.6142 55.2192 30.6084 55.2192C30.6025 55.2192 30.5967 55.2192 30.5908 55.2192C30.585 55.2192 30.5792 55.2192 30.5734 55.2192C30.5676 55.2192 30.5619 55.2192 30.5561 55.2192C30.5504 55.2192 30.5447 55.2192 30.539 55.2192C30.5333 55.2192 30.5276 55.2192 30.5219 55.2192C30.5162 55.2192 30.5106 55.2192 30.505 55.2192C30.4993 55.2192 30.4937 55.2192 30.4882 55.2192C30.4826 55.2192 30.477 55.2192 30.4715 55.2192C30.4659 55.2192 30.4604 55.2192 30.4549 55.2192C30.4494 55.2192 30.4439 55.2192 30.4385 55.2192C30.433 55.2192 30.4276 55.2192 30.4221 55.2192C30.4167 55.2192 30.4113 55.2192 30.406 55.2192C30.4006 55.2192 30.3952 55.2192 30.3899 55.2192C30.3845 55.2192 30.3792 55.2192 30.3739 55.2192C30.3686 55.2192 30.3634 55.2192 30.3581 55.2192C30.3529 55.2192 30.3476 55.2192 30.3424 55.2192C30.3372 55.2192 30.332 55.2192 30.3269 55.2192C30.3217 55.2192 30.3165 55.2192 30.3114 55.2192C30.3063 55.2192 30.3012 55.2192 30.2961 55.2192C30.291 55.2192 30.286 55.2192 30.2809 55.2192C30.2759 55.2192 30.2709 55.2192 30.2659 55.2192C30.2609 55.2192 30.2559 55.2192 30.2509 55.2192C30.246 55.2192 30.241 55.2192 30.2361 55.2192C30.2312 55.2192 30.2263 55.2192 30.2215 55.2192C30.2166 55.2192 30.2117 55.2192 30.2069 55.2192C30.2021 55.2192 30.1973 55.2192 30.1925 55.2192C30.1877 55.2192 30.183 55.2192 30.1782 55.2192C30.1735 55.2192 30.1688 55.2192 30.1641 55.2192C30.1594 55.2192 30.1547 55.2192 30.1501 55.2192C30.1454 55.2192 30.1408 55.2192 30.1362 55.2192C30.1316 55.2192 30.127 55.2192 30.1224 55.2192C30.1179 55.2192 30.1133 55.2192 30.1088 55.2192C30.1043 55.2192 30.0998 55.2192 30.0953 55.2192C30.0908 55.2192 30.0864 55.2192 30.082 55.2192C30.0775 55.2192 30.0731 55.2192 30.0687 55.2192C30.0644 55.2192 30.06 55.2192 30.0557 55.2192C30.0513 55.2192 30.047 55.2192 30.0427 55.2192C30.0384 55.2192 30.0342 55.2192 30.0299 55.2192C30.0257 55.2192 30.0214 55.2192 30.0172 55.2192C30.013 55.2192 30.0089 55.2192 30.0047 55.2192C30.0005 55.2192 29.9964 55.2192 29.9923 55.2192C29.9882 55.2192 29.9841 55.2192 29.98 55.2192C29.976 55.2192 29.9719 55.2192 29.9679 55.2192C29.9639 55.2192 29.9599 55.2192 29.9559 55.2192C29.952 55.2192 29.948 55.2192 29.9441 55.2192C29.9402 55.2192 29.9363 55.2192 29.9324 55.2192C29.9285 55.2192 29.9246 55.2192 29.9208 55.2192C29.917 55.2192 29.9132 55.2192 29.9094 55.2192C29.9056 55.2192 29.9018 55.2192 29.8981 55.2192C29.8944 55.2192 29.8906 55.2192 29.887 55.2192C29.8833 55.2192 29.8796 55.2192 29.876 55.2192C29.8723 55.2192 29.8687 55.2192 29.8651 55.2192C29.8615 55.2192 29.8579 55.2192 29.8544 55.2192C29.8508 55.2192 29.8473 55.2192 29.8438 55.2192C29.8403 55.2192 29.8368 55.2192 29.8334 55.2192C29.8299 55.2192 29.8265 55.2192 29.8231 55.2192C29.8197 55.2192 29.8163 55.2192 29.813 55.2192C29.8096 55.2192 29.8063 55.2192 29.803 55.2192C29.7997 55.2192 29.7964 55.2192 29.7931 55.2192C29.7899 55.2192 29.7866 55.2192 29.7834 55.2192C29.7802 55.2192 29.777 55.2192 29.7739 55.2192C29.7707 55.2192 29.7676 55.2192 29.7644 55.2192C29.7613 55.2192 29.7582 55.2192 29.7552 55.2192C29.7521 55.2192 29.7491 55.2192 29.7461 55.2192C29.7431 55.2192 29.7401 55.2192 29.7371 55.2192C29.7341 55.2192 29.7312 55.2192 29.7283 55.2192C29.7254 55.2192 29.7225 55.2192 29.7196 55.2192C29.7168 55.2192 29.7139 55.2192 29.7111 55.2192C29.7083 55.2192 29.7055 55.2192 29.7027 55.2192C29.7 55.2192 29.6972 55.2192 29.6945 55.2192C29.6918 55.2192 29.6891 55.2192 29.6865 55.2192C29.6838 55.2192 29.6812 55.2192 29.6786 55.2192C29.6759 55.2192 29.6734 55.2192 29.6708 55.2192C29.6682 55.2192 29.6657 55.2192 29.6632 55.2192C29.6607 55.2192 29.6582 55.2192 29.6557 55.2192C29.6533 55.2192 29.6508 55.2192 29.6484 55.2192C29.646 55.2192 29.6436 55.2192 29.6413 55.2192C29.6389 55.2192 29.6366 55.2192 29.6343 55.2192C29.632 55.2192 29.6297 55.2192 29.6274 55.2192C29.6252 55.2192 29.623 55.2192 29.6208 55.2192C29.6186 55.2192 29.6164 55.2192 29.6142 55.2192C29.6121 55.2192 29.61 55.2192 29.6079 55.2192C29.6058 55.2192 29.6037 55.2192 29.6017 55.2192C29.5996 55.2192 29.5976 55.2192 29.5956 55.2192C29.5936 55.2192 29.5916 55.2192 29.5897 55.2192C29.5878 55.2192 29.5858 55.2192 29.584 55.2192C29.5821 55.2192 29.5802 55.2192 29.5784 55.2192C29.5765 55.2192 29.5747 55.2192 29.573 55.2192C29.5712 55.2192 29.5694 55.2192 29.5677 55.2192C29.566 55.2192 29.5643 55.2192 29.5626 55.2192C29.5609 55.2192 29.5593 55.2192 29.5576 55.2192C29.556 55.2192 29.5544 55.2192 29.5529 55.2192C29.5513 55.2192 29.5498 55.2192 29.5482 55.2192C29.5467 55.2192 29.5452 55.2192 29.5438 55.2192C29.5423 55.2192 29.5409 55.2192 29.5395 55.2192C29.5381 55.2192 29.5367 55.2192 29.5354 55.2192C29.534 55.2192 29.5327 55.2192 29.5314 55.2192C29.5301 55.2192 29.5288 55.2192 29.5276 55.2192C29.5263 55.2192 29.5251 55.2192 29.5239 55.2192C29.5228 55.2192 29.5216 55.2192 29.5205 55.2192C29.5193 55.2192 29.5182 55.2192 29.5172 55.2192C29.5161 55.2192 29.515 55.2192 29.514 55.2192C29.513 55.2192 29.512 55.2192 29.511 55.2192C29.5101 55.2192 29.5091 55.2192 29.5082 55.2192C29.5073 55.2192 29.5064 55.2192 29.5056 55.2192C29.5047 55.2192 29.5039 55.2192 29.5031 55.2192C29.5023 55.2192 29.5015 55.2192 29.5008 55.2192C29.5 55.2192 29.4993 55.2192 29.4986 55.2192C29.4979 55.2192 29.4973 55.2192 29.4967 55.2192C29.496 55.2192 29.4954 55.2192 29.4948 55.2192C29.4943 55.2192 29.4937 55.2192 29.4932 55.2192C29.4927 55.2192 29.4922 55.2192 29.4917 55.2192C29.4913 55.2192 29.4909 55.2192 29.4905 55.2192C29.49 55.2192 29.4897 55.2192 29.4893 55.2192C29.489 55.2192 29.4887 55.2192 29.4884 55.2192C29.4881 55.2192 29.4878 55.2192 29.4876 55.2192C29.4874 55.2192 29.4872 55.2192 29.487 55.2192C29.4868 55.2192 29.4867 55.2192 29.4866 55.2192C29.4864 55.2192 29.4864 55.2192 29.4863 55.2192C29.4862 55.2192 29.4862 55.2192 29.4862 57.2192C29.4862 59.2192 29.4862 59.2192 29.4863 59.2192C29.4864 59.2192 29.4864 59.2192 29.4866 59.2192C29.4867 59.2192 29.4868 59.2192 29.487 59.2192C29.4872 59.2192 29.4874 59.2192 29.4876 59.2192C29.4878 59.2192 29.4881 59.2192 29.4884 59.2192C29.4887 59.2192 29.489 59.2192 29.4893 59.2192C29.4897 59.2192 29.49 59.2192 29.4905 59.2192C29.4909 59.2192 29.4913 59.2192 29.4917 59.2192C29.4922 59.2192 29.4927 59.2192 29.4932 59.2192C29.4937 59.2192 29.4943 59.2192 29.4948 59.2192C29.4954 59.2192 29.496 59.2192 29.4967 59.2192C29.4973 59.2192 29.4979 59.2192 29.4986 59.2192C29.4993 59.2192 29.5 59.2192 29.5008 59.2192C29.5015 59.2192 29.5023 59.2192 29.5031 59.2192C29.5039 59.2192 29.5047 59.2192 29.5056 59.2192C29.5064 59.2192 29.5073 59.2192 29.5082 59.2192C29.5091 59.2192 29.5101 59.2192 29.511 59.2192C29.512 59.2192 29.513 59.2192 29.514 59.2192C29.515 59.2192 29.5161 59.2192 29.5172 59.2192C29.5182 59.2192 29.5193 59.2192 29.5205 59.2192C29.5216 59.2192 29.5228 59.2192 29.5239 59.2192C29.5251 59.2192 29.5263 59.2192 29.5276 59.2192C29.5288 59.2192 29.5301 59.2192 29.5314 59.2192C29.5327 59.2192 29.534 59.2192 29.5354 59.2192C29.5367 59.2192 29.5381 59.2192 29.5395 59.2192C29.5409 59.2192 29.5423 59.2192 29.5438 59.2192C29.5452 59.2192 29.5467 59.2192 29.5482 59.2192C29.5498 59.2192 29.5513 59.2192 29.5529 59.2192C29.5544 59.2192 29.556 59.2192 29.5576 59.2192C29.5593 59.2192 29.5609 59.2192 29.5626 59.2192C29.5643 59.2192 29.566 59.2192 29.5677 59.2192C29.5694 59.2192 29.5712 59.2192 29.573 59.2192C29.5747 59.2192 29.5765 59.2192 29.5784 59.2192C29.5802 59.2192 29.5821 59.2192 29.584 59.2192C29.5858 59.2192 29.5878 59.2192 29.5897 59.2192C29.5916 59.2192 29.5936 59.2192 29.5956 59.2192C29.5976 59.2192 29.5996 59.2192 29.6017 59.2192C29.6037 59.2192 29.6058 59.2192 29.6079 59.2192C29.61 59.2192 29.6121 59.2192 29.6142 59.2192C29.6164 59.2192 29.6186 59.2192 29.6208 59.2192C29.623 59.2192 29.6252 59.2192 29.6274 59.2192C29.6297 59.2192 29.632 59.2192 29.6343 59.2192C29.6366 59.2192 29.6389 59.2192 29.6413 59.2192C29.6436 59.2192 29.646 59.2192 29.6484 59.2192C29.6508 59.2192 29.6533 59.2192 29.6557 59.2192C29.6582 59.2192 29.6607 59.2192 29.6632 59.2192C29.6657 59.2192 29.6682 59.2192 29.6708 59.2192C29.6734 59.2192 29.6759 59.2192 29.6786 59.2192C29.6812 59.2192 29.6838 59.2192 29.6865 59.2192C29.6891 59.2192 29.6918 59.2192 29.6945 59.2192C29.6972 59.2192 29.7 59.2192 29.7027 59.2192C29.7055 59.2192 29.7083 59.2192 29.7111 59.2192C29.7139 59.2192 29.7168 59.2192 29.7196 59.2192C29.7225 59.2192 29.7254 59.2192 29.7283 59.2192C29.7312 59.2192 29.7341 59.2192 29.7371 59.2192C29.7401 59.2192 29.7431 59.2192 29.7461 59.2192C29.7491 59.2192 29.7521 59.2192 29.7552 59.2192C29.7582 59.2192 29.7613 59.2192 29.7644 59.2192C29.7676 59.2192 29.7707 59.2192 29.7739 59.2192C29.777 59.2192 29.7802 59.2192 29.7834 59.2192C29.7866 59.2192 29.7899 59.2192 29.7931 59.2192C29.7964 59.2192 29.7997 59.2192 29.803 59.2192C29.8063 59.2192 29.8096 59.2192 29.813 59.2192C29.8163 59.2192 29.8197 59.2192 29.8231 59.2192C29.8265 59.2192 29.8299 59.2192 29.8334 59.2192C29.8368 59.2192 29.8403 59.2192 29.8438 59.2192C29.8473 59.2192 29.8508 59.2192 29.8544 59.2192C29.8579 59.2192 29.8615 59.2192 29.8651 59.2192C29.8687 59.2192 29.8723 59.2192 29.876 59.2192C29.8796 59.2192 29.8833 59.2192 29.887 59.2192C29.8906 59.2192 29.8944 59.2192 29.8981 59.2192C29.9018 59.2192 29.9056 59.2192 29.9094 59.2192C29.9132 59.2192 29.917 59.2192 29.9208 59.2192C29.9246 59.2192 29.9285 59.2192 29.9324 59.2192C29.9363 59.2192 29.9402 59.2192 29.9441 59.2192C29.948 59.2192 29.952 59.2192 29.9559 59.2192C29.9599 59.2192 29.9639 59.2192 29.9679 59.2192C29.9719 59.2192 29.976 59.2192 29.98 59.2192C29.9841 59.2192 29.9882 59.2192 29.9923 59.2192C29.9964 59.2192 30.0005 59.2192 30.0047 59.2192C30.0089 59.2192 30.013 59.2192 30.0172 59.2192C30.0214 59.2192 30.0257 59.2192 30.0299 59.2192C30.0342 59.2192 30.0384 59.2192 30.0427 59.2192C30.047 59.2192 30.0513 59.2192 30.0557 59.2192C30.06 59.2192 30.0644 59.2192 30.0687 59.2192C30.0731 59.2192 30.0775 59.2192 30.082 59.2192C30.0864 59.2192 30.0908 59.2192 30.0953 59.2192C30.0998 59.2192 30.1043 59.2192 30.1088 59.2192C30.1133 59.2192 30.1179 59.2192 30.1224 59.2192C30.127 59.2192 30.1316 59.2192 30.1362 59.2192C30.1408 59.2192 30.1454 59.2192 30.1501 59.2192C30.1547 59.2192 30.1594 59.2192 30.1641 59.2192C30.1688 59.2192 30.1735 59.2192 30.1782 59.2192C30.183 59.2192 30.1877 59.2192 30.1925 59.2192C30.1973 59.2192 30.2021 59.2192 30.2069 59.2192C30.2117 59.2192 30.2166 59.2192 30.2215 59.2192C30.2263 59.2192 30.2312 59.2192 30.2361 59.2192C30.241 59.2192 30.246 59.2192 30.2509 59.2192C30.2559 59.2192 30.2609 59.2192 30.2659 59.2192C30.2709 59.2192 30.2759 59.2192 30.2809 59.2192C30.286 59.2192 30.291 59.2192 30.2961 59.2192C30.3012 59.2192 30.3063 59.2192 30.3114 59.2192C30.3165 59.2192 30.3217 59.2192 30.3269 59.2192C30.332 59.2192 30.3372 59.2192 30.3424 59.2192C30.3476 59.2192 30.3529 59.2192 30.3581 59.2192C30.3634 59.2192 30.3686 59.2192 30.3739 59.2192C30.3792 59.2192 30.3845 59.2192 30.3899 59.2192C30.3952 59.2192 30.4006 59.2192 30.406 59.2192C30.4113 59.2192 30.4167 59.2192 30.4221 59.2192C30.4276 59.2192 30.433 59.2192 30.4385 59.2192C30.4439 59.2192 30.4494 59.2192 30.4549 59.2192C30.4604 59.2192 30.4659 59.2192 30.4715 59.2192C30.477 59.2192 30.4826 59.2192 30.4882 59.2192C30.4937 59.2192 30.4993 59.2192 30.505 59.2192C30.5106 59.2192 30.5162 59.2192 30.5219 59.2192C30.5276 59.2192 30.5333 59.2192 30.539 59.2192C30.5447 59.2192 30.5504 59.2192 30.5561 59.2192C30.5619 59.2192 30.5676 59.2192 30.5734 59.2192C30.5792 59.2192 30.585 59.2192 30.5908 59.2192C30.5967 59.2192 30.6025 59.2192 30.6084 59.2192C30.6142 59.2192 30.6201 59.2192 30.626 59.2192C30.6319 59.2192 30.6378 59.2192 30.6438 59.2192C30.6497 59.2192 30.6557 59.2192 30.6617 59.2192C30.6677 59.2192 30.6737 59.2192 30.6797 59.2192C30.6857 59.2192 30.6917 59.2192 30.6978 59.2192C30.7039 59.2192 30.7099 59.2192 30.716 59.2192C30.7221 59.2192 30.7283 59.2192 30.7344 59.2192C30.7405 59.2192 30.7467 59.2192 30.7529 59.2192C30.759 59.2192 30.7652 59.2192 30.7714 59.2192C30.7777 59.2192 30.7839 59.2192 30.7901 59.2192C30.7964 59.2192 30.8027 59.2192 30.809 59.2192C30.8153 59.2192 30.8216 59.2192 30.8279 59.2192C30.8342 59.2192 30.8406 59.2192 30.8469 59.2192C30.8533 59.2192 30.8597 59.2192 30.8661 59.2192C30.8725 59.2192 30.8789 59.2192 30.8853 59.2192C30.8918 59.2192 30.8982 59.2192 30.9047 59.2192C30.9112 59.2192 30.9177 59.2192 30.9242 59.2192C30.9307 59.2192 30.9373 59.2192 30.9438 59.2192C30.9504 59.2192 30.9569 59.2192 30.9635 59.2192C30.9701 59.2192 30.9767 59.2192 30.9833 59.2192C30.99 59.2192 30.9966 59.2192 31.0033 59.2192C31.0099 59.2192 31.0166 59.2192 31.0233 59.2192C31.03 59.2192 31.0367 59.2192 31.0435 59.2192C31.0502 59.2192 31.057 59.2192 31.0637 59.2192C31.0705 59.2192 31.0773 59.2192 31.0841 59.2192C31.0909 59.2192 31.0977 59.2192 31.1046 59.2192C31.1114 59.2192 31.1183 59.2192 31.1251 59.2192C31.132 59.2192 31.1389 59.2192 31.1458 59.2192C31.1527 59.2192 31.1597 59.2192 31.1666 59.2192C31.1736 59.2192 31.1805 59.2192 31.1875 59.2192C31.1945 59.2192 31.2015 59.2192 31.2085 59.2192C31.2155 59.2192 31.2226 59.2192 31.2296 59.2192C31.2367 59.2192 31.2437 59.2192 31.2508 59.2192C31.2579 59.2192 31.265 59.2192 31.2721 59.2192C31.2793 59.2192 31.2864 59.2192 31.2935 59.2192C31.3007 59.2192 31.3079 59.2192 31.3151 59.2192C31.3223 59.2192 31.3295 59.2192 31.3367 59.2192C31.3439 59.2192 31.3511 59.2192 31.3584 59.2192C31.3657 59.2192 31.3729 59.2192 31.3802 59.2192C31.3875 59.2192 31.3948 59.2192 31.4022 59.2192C31.4095 59.2192 31.4168 59.2192 31.4242 59.2192C31.4315 59.2192 31.4389 59.2192 31.4463 59.2192C31.4537 59.2192 31.4611 59.2192 31.4685 59.2192C31.4759 59.2192 31.4834 59.2192 31.4908 59.2192C31.4983 59.2192 31.5058 59.2192 31.5133 59.2192C31.5208 59.2192 31.5283 59.2192 31.5358 59.2192C31.5433 59.2192 31.5508 59.2192 31.5584 59.2192C31.566 59.2192 31.5735 59.2192 31.5811 59.2192C31.5887 59.2192 31.5963 59.2192 31.6039 59.2192C31.6115 59.2192 31.6192 59.2192 31.6268 59.2192C31.6345 59.2192 31.6422 59.2192 31.6498 59.2192C31.6575 59.2192 31.6652 59.2192 31.6729 59.2192C31.6806 59.2192 31.6884 59.2192 31.6961 59.2192C31.7039 59.2192 31.7116 59.2192 31.7194 59.2192C31.7272 59.2192 31.735 59.2192 31.7428 59.2192C31.7506 59.2192 31.7584 59.2192 31.7663 59.2192C31.7741 59.2192 31.782 59.2192 31.7898 59.2192C31.7977 59.2192 31.8056 59.2192 31.8135 59.2192C31.8214 59.2192 31.8293 59.2192 31.8372 59.2192C31.8452 59.2192 31.8531 59.2192 31.8611 59.2192C31.869 59.2192 31.877 59.2192 31.885 59.2192C31.893 59.2192 31.901 59.2192 31.909 59.2192C31.9171 59.2192 31.9251 59.2192 31.9332 59.2192C31.9412 59.2192 31.9493 59.2192 31.9574 59.2192C31.9654 59.2192 31.9735 59.2192 31.9816 59.2192C31.9898 59.2192 31.9979 59.2192 32.006 59.2192C32.0142 59.2192 32.0223 59.2192 32.0305 59.2192C32.0387 59.2192 32.0469 59.2192 32.0551 59.2192C32.0633 59.2192 32.0715 59.2192 32.0797 59.2192C32.0879 59.2192 32.0962 59.2192 32.1044 59.2192C32.1127 59.2192 32.121 59.2192 32.1293 59.2192C32.1375 59.2192 32.1458 59.2192 32.1542 59.2192C32.1625 59.2192 32.1708 59.2192 32.1791 59.2192C32.1875 59.2192 32.1958 59.2192 32.2042 59.2192C32.2126 59.2192 32.221 59.2192 32.2294 59.2192C32.2378 59.2192 32.2462 59.2192 32.2546 59.2192C32.2631 59.2192 32.2715 59.2192 32.2799 59.2192C32.2884 59.2192 32.2969 59.2192 32.3054 59.2192C32.3138 59.2192 32.3223 59.2192 32.3309 59.2192C32.3394 59.2192 32.3479 59.2192 32.3564 59.2192C32.365 59.2192 32.3735 59.2192 32.3821 59.2192C32.3906 59.2192 32.3992 59.2192 32.4078 59.2192C32.4164 59.2192 32.425 59.2192 32.4336 59.2192C32.4423 59.2192 32.4509 59.2192 32.4595 59.2192C32.4682 59.2192 32.4768 59.2192 32.4855 59.2192C32.4942 59.2192 32.5029 59.2192 32.5116 59.2192C32.5203 59.2192 32.529 59.2192 32.5377 59.2192C32.5464 59.2192 32.5552 59.2192 32.5639 59.2192C32.5727 59.2192 32.5815 59.2192 32.5902 59.2192C32.599 59.2192 32.6078 59.2192 32.6166 59.2192C32.6254 59.2192 32.6342 59.2192 32.6431 59.2192C32.6519 59.2192 32.6607 59.2192 32.6696 59.2192C32.6784 59.2192 32.6873 59.2192 32.6962 59.2192C32.7051 59.2192 32.714 59.2192 32.7229 59.2192C32.7318 59.2192 32.7407 59.2192 32.7496 59.2192C32.7585 59.2192 32.7675 59.2192 32.7764 59.2192C32.7854 59.2192 32.7944 59.2192 32.8033 59.2192C32.8123 59.2192 32.8213 59.2192 32.8303 59.2192C32.8393 59.2192 32.8483 59.2192 32.8574 59.2192C32.8664 59.2192 32.8754 59.2192 32.8845 59.2192C32.8935 59.2192 32.9026 59.2192 32.9117 59.2192C32.9208 59.2192 32.9299 59.2192 32.939 59.2192C32.9481 59.2192 32.9572 59.2192 32.9663 59.2192C32.9754 59.2192 32.9846 59.2192 32.9937 59.2192C33.0028 59.2192 33.012 59.2192 33.0212 59.2192C33.0304 59.2192 33.0395 59.2192 33.0487 59.2192C33.0579 59.2192 33.0671 59.2192 33.0764 59.2192C33.0856 59.2192 33.0948 59.2192 33.104 59.2192C33.1133 59.2192 33.1225 59.2192 33.1318 59.2192C33.1411 59.2192 33.1503 59.2192 33.1596 59.2192C33.1689 59.2192 33.1782 59.2192 33.1875 59.2192C33.1968 59.2192 33.2062 59.2192 33.2155 59.2192C33.2248 59.2192 33.2342 59.2192 33.2435 59.2192C33.2529 59.2192 33.2622 59.2192 33.2716 59.2192C33.281 59.2192 33.2904 59.2192 33.2998 59.2192C33.3092 59.2192 33.3186 59.2192 33.328 59.2192C33.3374 59.2192 33.3469 59.2192 33.3563 59.2192C33.3657 59.2192 33.3752 59.2192 33.3847 59.2192C33.3941 59.2192 33.4036 59.2192 33.4131 59.2192C33.4226 59.2192 33.4321 59.2192 33.4416 59.2192C33.4511 59.2192 33.4606 59.2192 33.4701 59.2192C33.4796 59.2192 33.4892 59.2192 33.4987 59.2192C33.5083 59.2192 33.5178 59.2192 33.5274 59.2192C33.537 59.2192 33.5465 59.2192 33.5561 59.2192C33.5657 59.2192 33.5753 59.2192 33.5849 59.2192C33.5945 59.2192 33.6042 59.2192 33.6138 59.2192C33.6234 59.2192 33.6331 59.2192 33.6427 59.2192C33.6524 59.2192 33.662 59.2192 33.6717 59.2192C33.6814 59.2192 33.691 59.2192 33.7007 59.2192C33.7104 59.2192 33.7201 59.2192 33.7298 59.2192C33.7395 59.2192 33.7493 59.2192 33.759 59.2192C33.7687 59.2192 33.7784 59.2192 33.7882 59.2192C33.7979 59.2192 33.8077 59.2192 33.8175 59.2192C33.8272 59.2192 33.837 59.2192 33.8468 59.2192C33.8566 59.2192 33.8664 59.2192 33.8762 59.2192C33.886 59.2192 33.8958 59.2192 33.9056 59.2192C33.9154 59.2192 33.9253 59.2192 33.9351 59.2192C33.945 59.2192 33.9548 59.2192 33.9647 59.2192C33.9745 59.2192 33.9844 59.2192 33.9943 59.2192C34.0042 59.2192 34.014 59.2192 34.0239 59.2192C34.0338 59.2192 34.0438 59.2192 34.0537 59.2192C34.0636 59.2192 34.0735 59.2192 34.0834 59.2192C34.0934 59.2192 34.1033 59.2192 34.1133 59.2192C34.1232 59.2192 34.1332 59.2192 34.1431 59.2192C34.1531 59.2192 34.1631 59.2192 34.1731 59.2192C34.183 59.2192 34.193 59.2192 34.203 59.2192C34.213 59.2192 34.2231 59.2192 34.2331 59.2192C34.2431 59.2192 34.2531 59.2192 34.2632 59.2192C34.2732 59.2192 34.2832 59.2192 34.2933 59.2192C34.3033 59.2192 34.3134 59.2192 34.3235 59.2192C34.3335 59.2192 34.3436 59.2192 34.3537 59.2192C34.3638 59.2192 34.3739 59.2192 34.384 59.2192C34.3941 59.2192 34.4042 59.2192 34.4143 59.2192C34.4244 59.2192 34.4346 59.2192 34.4447 59.2192C34.4548 59.2192 34.465 59.2192 34.4751 59.2192C34.4853 59.2192 34.4954 59.2192 34.5056 59.2192C34.5158 59.2192 34.5259 59.2192 34.5361 59.2192C34.5463 59.2192 34.5565 59.2192 34.5667 59.2192C34.5769 59.2192 34.5871 59.2192 34.5973 59.2192C34.6075 59.2192 34.6177 59.2192 34.6279 59.2192C34.6382 59.2192 34.6484 59.2192 34.6586 59.2192C34.6689 59.2192 34.6791 59.2192 34.6894 59.2192C34.6996 59.2192 34.7099 59.2192 34.7202 59.2192C34.7304 59.2192 34.7407 59.2192 34.751 59.2192C34.7613 59.2192 34.7716 59.2192 34.7819 59.2192C34.7922 59.2192 34.8025 59.2192 34.8128 59.2192C34.8231 59.2192 34.8334 59.2192 34.8438 59.2192C34.8541 59.2192 34.8644 59.2192 34.8748 59.2192C34.8851 59.2192 34.8954 59.2192 34.9058 59.2192C34.9161 59.2192 34.9265 59.2192 34.9369 59.2192C34.9472 59.2192 34.9576 59.2192 34.968 59.2192C34.9784 59.2192 34.9888 59.2192 34.9992 59.2192C35.0096 59.2192 35.02 59.2192 35.0304 59.2192C35.0408 59.2192 35.0512 59.2192 35.0616 59.2192C35.072 59.2192 35.0824 59.2192 35.0929 59.2192C35.1033 59.2192 35.1137 59.2192 35.1242 59.2192C35.1346 59.2192 35.1451 59.2192 35.1555 59.2192C35.166 59.2192 35.1765 59.2192 35.1869 59.2192C35.1974 59.2192 35.2079 59.2192 35.2184 59.2192C35.2288 59.2192 35.2393 59.2192 35.2498 59.2192C35.2603 59.2192 35.2708 59.2192 35.2813 59.2192C35.2918 59.2192 35.3023 59.2192 35.3129 59.2192C35.3234 59.2192 35.3339 59.2192 35.3444 59.2192C35.355 59.2192 35.3655 59.2192 35.376 59.2192C35.3866 59.2192 35.3971 59.2192 35.4077 59.2192C35.4182 59.2192 35.4288 59.2192 35.4393 59.2192C35.4499 59.2192 35.4605 59.2192 35.471 59.2192C35.4816 59.2192 35.4922 59.2192 35.5028 59.2192C35.5133 59.2192 35.5239 59.2192 35.5345 59.2192C35.5451 59.2192 35.5557 59.2192 35.5663 59.2192C35.5769 59.2192 35.5875 59.2192 35.5982 59.2192C35.6088 59.2192 35.6194 59.2192 35.63 59.2192C35.6406 59.2192 35.6513 59.2192 35.6619 59.2192C35.6725 59.2192 35.6832 59.2192 35.6938 59.2192C35.7045 59.2192 35.7151 59.2192 35.7258 59.2192C35.7364 59.2192 35.7471 59.2192 35.7577 59.2192C35.7684 59.2192 35.7791 59.2192 35.7897 59.2192C35.8004 59.2192 35.8111 59.2192 35.8218 59.2192C35.8325 59.2192 35.8431 59.2192 35.8538 59.2192C35.8645 59.2192 35.8752 59.2192 35.8859 59.2192C35.8966 59.2192 35.9073 59.2192 35.918 59.2192C35.9287 59.2192 35.9394 59.2192 35.9502 59.2192C35.9609 59.2192 35.9716 59.2192 35.9823 59.2192C35.993 59.2192 36.0038 59.2192 36.0145 59.2192C36.0252 59.2192 36.036 59.2192 36.0467 59.2192C36.0575 59.2192 36.0682 59.2192 36.079 59.2192C36.0897 59.2192 36.1005 59.2192 36.1112 59.2192C36.122 59.2192 36.1327 59.2192 36.1435 59.2192C36.1543 59.2192 36.165 59.2192 36.1758 59.2192C36.1866 59.2192 36.1973 59.2192 36.2081 59.2192C36.2189 59.2192 36.2297 59.2192 36.2405 59.2192C36.2513 59.2192 36.2621 59.2192 36.2728 59.2192C36.2836 59.2192 36.2944 59.2192 36.3052 59.2192C36.316 59.2192 36.3268 59.2192 36.3376 59.2192C36.3484 59.2192 36.3593 59.2192 36.3701 59.2192C36.3809 59.2192 36.3917 59.2192 36.4025 59.2192C36.4133 59.2192 36.4242 59.2192 36.435 59.2192C36.4458 59.2192 36.4566 59.2192 36.4675 59.2192C36.4783 59.2192 36.4891 59.2192 36.5 59.2192C36.5108 59.2192 36.5217 59.2192 36.5325 59.2192C36.5433 59.2192 36.5542 59.2192 36.565 59.2192C36.5759 59.2192 36.5867 59.2192 36.5976 59.2192C36.6084 59.2192 36.6193 59.2192 36.6302 59.2192C36.641 59.2192 36.6519 59.2192 36.6627 59.2192C36.6736 59.2192 36.6845 59.2192 36.6954 59.2192C36.7062 59.2192 36.7171 59.2192 36.728 59.2192C36.7388 59.2192 36.7497 59.2192 36.7606 59.2192C36.7715 59.2192 36.7824 59.2192 36.7932 59.2192C36.8041 59.2192 36.815 59.2192 36.8259 59.2192C36.8368 59.2192 36.8477 59.2192 36.8586 59.2192C36.8695 59.2192 36.8804 59.2192 36.8913 59.2192C36.9021 59.2192 36.913 59.2192 36.9239 59.2192C36.9348 59.2192 36.9457 59.2192 36.9566 59.2192C36.9676 59.2192 36.9785 59.2192 36.9894 59.2192C37.0003 59.2192 37.0112 59.2192 37.0221 59.2192C37.033 59.2192 37.0439 59.2192 37.0548 59.2192C37.0657 59.2192 37.0767 59.2192 37.0876 59.2192C37.0985 59.2192 37.1094 59.2192 37.1203 59.2192C37.1313 59.2192 37.1422 59.2192 37.1531 59.2192C37.164 59.2192 37.1749 59.2192 37.1859 59.2192C37.1968 59.2192 37.2077 59.2192 37.2187 59.2192C37.2296 59.2192 37.2405 59.2192 37.2514 59.2192C37.2624 59.2192 37.2733 59.2192 37.2842 59.2192C37.2952 59.2192 37.3061 59.2192 37.317 59.2192C37.328 59.2192 37.3389 59.2192 37.3498 59.2192C37.3608 59.2192 37.3717 59.2192 37.3827 59.2192C37.3936 59.2192 37.4045 59.2192 37.4155 59.2192C37.4264 59.2192 37.4374 59.2192 37.4483 59.2192C37.4592 59.2192 37.4702 59.2192 37.4811 59.2192C37.4921 59.2192 37.503 59.2192 37.514 59.2192C37.5249 59.2192 37.5358 59.2192 37.5468 59.2192C37.5577 59.2192 37.5687 59.2192 37.5796 59.2192C37.5906 59.2192 37.6015 59.2192 37.6125 59.2192C37.6234 59.2192 37.6343 59.2192 37.6453 59.2192C37.6562 59.2192 37.6672 59.2192 37.6781 59.2192C37.6891 59.2192 37.7 59.2192 37.711 59.2192C37.7219 59.2192 37.7329 59.2192 37.7438 59.2192C37.7548 59.2192 37.7657 59.2192 37.7767 59.2192C37.7876 59.2192 37.7986 59.2192 37.8095 59.2192C37.8204 59.2192 37.8314 59.2192 37.8423 59.2192C37.8533 59.2192 37.8642 59.2192 37.8752 59.2192C37.8861 59.2192 37.8971 59.2192 37.908 59.2192C37.919 59.2192 37.9299 59.2192 37.9408 59.2192C37.9518 59.2192 37.9627 59.2192 37.9737 59.2192C37.9846 59.2192 37.9956 59.2192 38.0065 59.2192C38.0174 59.2192 38.0284 59.2192 38.0393 59.2192C38.0503 59.2192 38.0612 59.2192 38.0721 59.2192C38.0831 59.2192 38.094 59.2192 38.105 59.2192C38.1159 59.2192 38.1268 59.2192 38.1378 59.2192C38.1487 59.2192 38.1596 59.2192 38.1706 59.2192C38.1815 59.2192 38.1924 59.2192 38.2034 59.2192C38.2143 59.2192 38.2252 59.2192 38.2362 59.2192C38.2471 59.2192 38.258 59.2192 38.2689 59.2192C38.2799 59.2192 38.2908 59.2192 38.3017 59.2192C38.3126 59.2192 38.3236 59.2192 38.3345 59.2192C38.3454 59.2192 38.3563 59.2192 38.3672 59.2192C38.3782 59.2192 38.3891 59.2192 38.4 59.2192C38.4109 59.2192 38.4218 59.2192 38.4327 59.2192C38.4436 59.2192 38.4546 59.2192 38.4655 59.2192C38.4764 59.2192 38.4873 59.2192 38.4982 59.2192C38.5091 59.2192 38.52 59.2192 38.5309 59.2192C38.5418 59.2192 38.5527 59.2192 38.5636 59.2192C38.5745 59.2192 38.5854 59.2192 38.5963 59.2192C38.6072 59.2192 38.6181 59.2192 38.629 59.2192C38.6398 59.2192 38.6507 59.2192 38.6616 59.2192C38.6725 59.2192 38.6834 59.2192 38.6943 59.2192C38.7052 59.2192 38.716 59.2192 38.7269 59.2192C38.7378 59.2192 38.7487 59.2192 38.7595 59.2192C38.7704 59.2192 38.7813 59.2192 38.7921 59.2192C38.803 59.2192 38.8139 59.2192 38.8247 59.2192C38.8356 59.2192 38.8464 59.2192 38.8573 59.2192C38.8682 59.2192 38.879 59.2192 38.8899 59.2192C38.9007 59.2192 38.9116 59.2192 38.9224 59.2192C38.9333 59.2192 38.9441 59.2192 38.9549 59.2192C38.9658 59.2192 38.9766 59.2192 38.9874 59.2192C38.9983 59.2192 39.0091 59.2192 39.0199 59.2192C39.0308 59.2192 39.0416 59.2192 39.0524 59.2192C39.0632 59.2192 39.0741 59.2192 39.0849 59.2192C39.0957 59.2192 39.1065 59.2192 39.1173 59.2192C39.1281 59.2192 39.1389 59.2192 39.1497 59.2192C39.1605 59.2192 39.1713 59.2192 39.1821 59.2192C39.1929 59.2192 39.2037 59.2192 39.2145 59.2192C39.2253 59.2192 39.2361 59.2192 39.2468 59.2192C39.2576 59.2192 39.2684 59.2192 39.2792 59.2192C39.29 59.2192 39.3007 59.2192 39.3115 59.2192C39.3223 59.2192 39.333 59.2192 39.3438 59.2192C39.3545 59.2192 39.3653 59.2192 39.376 59.2192C39.3868 59.2192 39.3975 59.2192 39.4083 59.2192C39.419 59.2192 39.4298 59.2192 39.4405 59.2192C39.4512 59.2192 39.462 59.2192 39.4727 59.2192C39.4834 59.2192 39.4942 59.2192 39.5049 59.2192C39.5156 59.2192 39.5263 59.2192 39.537 59.2192C39.5477 59.2192 39.5584 59.2192 39.5691 59.2192C39.5798 59.2192 39.5905 59.2192 39.6012 59.2192C39.6119 59.2192 39.6226 59.2192 39.6333 59.2192C39.644 59.2192 39.6547 59.2192 39.6653 59.2192C39.676 59.2192 39.6867 59.2192 39.6974 59.2192C39.708 59.2192 39.7187 59.2192 39.7293 59.2192C39.74 59.2192 39.7507 59.2192 39.7613 59.2192C39.7719 59.2192 39.7826 59.2192 39.7932 59.2192C39.8039 59.2192 39.8145 59.2192 39.8251 59.2192C39.8358 59.2192 39.8464 59.2192 39.857 59.2192C39.8676 59.2192 39.8782 59.2192 39.8888 59.2192C39.8994 59.2192 39.91 59.2192 39.9206 59.2192C39.9312 59.2192 39.9418 59.2192 39.9524 59.2192C39.963 59.2192 39.9736 59.2192 39.9842 59.2192C39.9947 59.2192 40.0053 59.2192 40.0159 59.2192C40.0264 59.2192 40.037 59.2192 40.0476 59.2192C40.0581 59.2192 40.0687 59.2192 40.0792 59.2192C40.0897 59.2192 40.1003 59.2192 40.1108 59.2192C40.1213 59.2192 40.1319 59.2192 40.1424 59.2192C40.1529 59.2192 40.1634 59.2192 40.1739 59.2192C40.1845 59.2192 40.195 59.2192 40.2055 59.2192C40.216 59.2192 40.2264 59.2192 40.2369 59.2192C40.2474 59.2192 40.2579 59.2192 40.2684 59.2192C40.2788 59.2192 40.2893 59.2192 40.2998 59.2192C40.3102 59.2192 40.3207 59.2192 40.3311 59.2192C40.3416 59.2192 40.352 59.2192 40.3625 59.2192C40.3729 59.2192 40.3833 59.2192 40.3938 59.2192C40.4042 59.2192 40.4146 59.2192 40.425 59.2192C40.4354 59.2192 40.4458 59.2192 40.4562 59.2192C40.4666 59.2192 40.477 59.2192 40.4874 59.2192C40.4978 59.2192 40.5082 59.2192 40.5185 59.2192C40.5289 59.2192 40.5393 59.2192 40.5496 59.2192C40.56 59.2192 40.5703 59.2192 40.5807 59.2192C40.591 59.2192 40.6014 59.2192 40.6117 59.2192C40.622 59.2192 40.6324 59.2192 40.6427 59.2192C40.653 59.2192 40.6633 59.2192 40.6736 59.2192C40.6839 59.2192 40.6942 59.2192 40.7045 59.2192C40.7148 59.2192 40.7251 59.2192 40.7354 59.2192C40.7456 59.2192 40.7559 59.2192 40.7662 59.2192C40.7764 59.2192 40.7867 59.2192 40.7969 59.2192C40.8072 59.2192 40.8174 59.2192 40.8276 59.2192C40.8379 59.2192 40.8481 59.2192 40.8583 59.2192C40.8685 59.2192 40.8787 59.2192 40.8889 59.2192C40.8991 59.2192 40.9093 59.2192 40.9195 59.2192C40.9297 59.2192 40.9399 59.2192 40.95 59.2192C40.9602 59.2192 40.9704 59.2192 40.9805 59.2192C40.9907 59.2192 41.0008 59.2192 41.011 59.2192C41.0211 59.2192 41.0312 59.2192 41.0414 59.2192C41.0515 59.2192 41.0616 59.2192 41.0717 59.2192C41.0818 59.2192 41.0919 59.2192 41.102 59.2192C41.1121 59.2192 41.1222 59.2192 41.1323 59.2192C41.1423 59.2192 41.1524 59.2192 41.1625 59.2192C41.1725 59.2192 41.1826 59.2192 41.1926 59.2192C41.2027 59.2192 41.2127 59.2192 41.2227 59.2192C41.2327 59.2192 41.2428 59.2192 41.2528 59.2192C41.2628 59.2192 41.2728 59.2192 41.2828 59.2192C41.2928 59.2192 41.3027 59.2192 41.3127 59.2192C41.3227 59.2192 41.3326 59.2192 41.3426 59.2192C41.3526 59.2192 41.3625 59.2192 41.3724 59.2192C41.3824 59.2192 41.3923 59.2192 41.4022 59.2192C41.4122 59.2192 41.4221 59.2192 41.432 59.2192C41.4419 59.2192 41.4518 59.2192 41.4617 59.2192C41.4715 59.2192 41.4814 59.2192 41.4913 59.2192C41.5012 59.2192 41.511 59.2192 41.5209 59.2192C41.5307 59.2192 41.5405 59.2192 41.5504 59.2192C41.5602 59.2192 41.57 59.2192 41.5798 59.2192C41.5896 59.2192 41.5995 59.2192 41.6092 59.2192C41.619 59.2192 41.6288 59.2192 41.6386 59.2192C41.6484 59.2192 41.6581 59.2192 41.6679 59.2192C41.6776 59.2192 41.6874 59.2192 41.6971 59.2192C41.7069 59.2192 41.7166 59.2192 41.7263 59.2192C41.736 59.2192 41.7457 59.2192 41.7554 59.2192C41.7651 59.2192 41.7748 59.2192 41.7845 59.2192C41.7942 59.2192 41.8038 59.2192 41.8135 59.2192C41.8231 59.2192 41.8328 59.2192 41.8424 59.2192C41.8521 59.2192 41.8617 59.2192 41.8713 59.2192C41.8809 59.2192 41.8905 59.2192 41.9001 59.2192C41.9097 59.2192 41.9193 59.2192 41.9289 59.2192C41.9384 59.2192 41.948 59.2192 41.9576 59.2192C41.9671 59.2192 41.9767 59.2192 41.9862 59.2192V55.2192ZM16.3734 55.2223C16.2319 55.2288 15.1741 55.2731 13.8567 55.2338C12.5011 55.1934 11.0365 55.0677 10.0102 54.7891L8.96222 58.6494C10.4646 59.0572 12.3205 59.1898 13.7374 59.232C15.1925 59.2754 16.3593 59.2271 16.5548 59.2182L16.3734 55.2223ZM10.0102 54.7891C8.77358 54.4534 7.90831 54.1341 7.17003 53.7168C6.44792 53.3087 5.76609 52.7604 4.97102 51.8794L2.00136 54.5591C3.02362 55.692 4.03283 56.5384 5.20192 57.1991C6.35482 57.8507 7.58088 58.2744 8.96222 58.6494L10.0102 54.7891ZM53.0014 51.8794C52.2013 52.766 51.5193 53.3201 50.7997 53.7296C50.0676 54.1463 49.2084 54.4641 47.9816 54.7839L48.9908 58.6545C50.3889 58.29 51.621 57.8647 52.7784 57.206C53.9482 56.5401 54.9538 55.6864 55.971 54.5591L53.0014 51.8794ZM47.9816 54.7839C45.8356 55.3435 44.6479 55.2192 41.9862 55.2192V59.2192C44.4014 59.2192 46.2242 59.3759 48.9908 58.6545L47.9816 54.7839ZM4.97102 51.8794C3.8529 50.6403 3.43126 49.8178 2.8931 48.1162L-0.920716 49.3223C-0.246499 51.4542 0.42586 52.8132 2.00136 54.5591L4.97102 51.8794ZM2.8931 48.1162C2.35952 46.429 2.42823 45.4746 2.48552 43.2712L-1.51313 43.1673C-1.56796 45.2759 -1.6878 46.8968 -0.920716 49.3223L2.8931 48.1162ZM55.4892 43.3288C55.6039 45.4194 55.6176 46.4141 55.0793 48.1162L58.8931 49.3223C59.6555 46.9116 59.6048 45.3261 59.4832 43.1096L55.4892 43.3288ZM55.0793 48.1162C54.5411 49.8178 54.1195 50.6403 53.0014 51.8794L55.971 54.5591C57.5465 52.8132 58.2189 51.4542 58.8931 49.3223L55.0793 48.1162ZM16.511 55.2192C16.4668 55.2192 16.4226 55.2201 16.3734 55.2223L16.5548 59.2182C16.5487 59.2185 16.5405 59.2188 16.531 59.219C16.5217 59.2192 16.5146 59.2192 16.511 59.2192V55.2192ZM29.4862 55.2192C29.4862 55.2192 29.4862 57.2192 29.4862 59.2192C29.4862 59.2192 29.4862 59.2192 29.4862 57.2192C29.4862 55.2192 29.4862 55.2192 29.4862 55.2192C29.4862 57.2192 29.4862 59.2192 29.4862 59.2192V55.2192ZM1.09448 32.5692C1.096 32.5645 1.0991 32.5552 1.10346 32.543C1.10791 32.5306 1.11207 32.5197 1.1154 32.5113L4.83483 33.983C4.85988 33.9196 4.88015 33.8624 4.89862 33.8055L1.09448 32.5692ZM45.1321 15.2192V15.2192L48.846 13.7337C48.2386 12.215 46.7677 11.2192 45.1321 11.2192V15.2192ZM52.6179 33.9337C52.6383 33.9847 52.66 34.0352 52.6856 34.0902L56.3101 32.3981C56.3134 32.4051 56.3176 32.4144 56.3222 32.425C56.3267 32.4354 56.33 32.4436 56.3318 32.4482L52.6179 33.9337ZM10.9392 11.2192C9.20637 11.2192 7.67061 12.3349 7.13503 13.9829L10.9392 15.2192L10.9392 15.2192V11.2192Z" fill="#2C2C2C" fill-opacity="0.9" mask="url(#path-1-inside-1_173_30)" stroke="#2C2C2C" stroke-opacity="0.9" stroke-width="4" stroke-linecap="round" stroke-linejoin="round"/>
<path d="M19.4463 29.2192C19.4463 29.2192 16.9606 1.21924 28.4463 1.21924C39.932 1.21924 37.4463 29.2192 37.4463 29.2192" stroke="#2C2C2C" stroke-opacity="0.9" stroke-width="4" stroke-linecap="round" stroke-linejoin="round"/>
</svg>
